<?xml version="1.0" encoding="UTF-8"?>
<svg version="1.1" xmlns="http://www.w3.org/2000/svg" width="500" height="500">
<path d="M0 0 C2.5 0.1875 2.5 0.1875 5 1 C7.31604219 4.47406328 7.59098631 6.68785296 8.19140625 10.80859375 C8.29741653 11.53041336 8.40342682 12.25223297 8.51264954 12.9959259 C8.87223024 15.47517419 9.21812922 17.95609551 9.5625 20.4375 C9.68506165 21.30395142 9.80762329 22.17040283 9.93389893 23.06311035 C12.77519728 43.21934487 15.16472781 63.4350945 17.56574631 83.64751053 C17.87505077 86.25042726 18.18532299 88.8532275 18.49563599 91.45602417 C18.99009692 95.60915909 19.48010624 99.76279724 19.96657372 103.91687584 C20.14859396 105.46803158 20.33169002 107.01906151 20.51592445 108.56995583 C20.77037976 110.71585019 21.02032468 112.8622232 21.26904297 115.00878906 C21.41082977 116.21891663 21.55261658 117.42904419 21.69869995 118.67584229 C21.98248134 121.80672164 22.0559941 124.85857022 22 128 C19.125 128.625 19.125 128.625 16 129 C13.69629374 126.69629374 13.65843903 126.00962879 13.27368164 122.87866211 C13.16317978 122.010121 13.05267792 121.1415799 12.93882751 120.24671936 C12.826241 119.28745041 12.71365448 118.32818146 12.59765625 117.33984375 C12.47246109 116.32744125 12.34726593 115.31503876 12.21827698 114.2719574 C11.8000601 110.84930288 11.39786296 107.42507861 11 104 C10.85890808 102.78773743 10.71781616 101.57547485 10.57244873 100.32647705 C9.58130557 91.75760274 8.61938308 83.18558486 7.66564941 74.61248779 C6.986873 68.51348739 6.30447868 62.41489178 5.62109375 56.31640625 C5.40735611 54.40826645 5.40735611 54.40826645 5.18930054 52.46157837 C4.19553232 43.6317332 3.15024931 34.81089197 2 26 C0.77921216 33.68555907 -0.42677883 41.3733916 -1.625 49.0625 C-1.80540833 50.21927246 -1.98581665 51.37604492 -2.17169189 52.56787109 C-5.16859666 71.8615066 -7.79701316 91.18163666 -10.09619141 110.57055664 C-10.26831146 111.98921776 -10.26831146 111.98921776 -10.44390869 113.4365387 C-10.65676093 115.19327933 -10.86353552 116.95077191 -11.06292725 118.70909119 C-11.52263603 122.47992379 -11.92975208 125.7550424 -14 129 C-15.98 128.67 -17.96 128.34 -20 128 C-22.42428935 120.70273994 -23.88689747 113.49499482 -25.015625 105.8984375 C-25.38398941 103.52472015 -25.7524836 101.15102295 -26.12109375 98.77734375 C-26.6812103 95.11556366 -27.23816556 91.4533378 -27.79150391 87.79052734 C-30.74773251 68.32000996 -34.59657306 49.18615715 -39 30 C-39.17095184 31.08026459 -39.34190369 32.16052917 -39.51803589 33.27352905 C-41.13407568 43.48375629 -42.75225443 53.69364257 -44.37249565 63.90320396 C-45.20528809 69.15128424 -46.03734224 74.3994793 -46.86767578 79.64794922 C-47.66991403 84.71865149 -48.47413518 89.78903574 -49.27969742 94.85921097 C-49.58577359 96.78784756 -49.89115066 98.71659525 -50.19579697 100.64545822 C-50.62457806 103.35948197 -51.05590631 106.07309005 -51.48779297 108.78662109 C-51.61151276 109.57353333 -51.73523254 110.36044556 -51.86270142 111.17120361 C-52.76425597 116.81168141 -53.8463035 122.405892 -55 128 C-60.75 129.125 -60.75 129.125 -63 128 C-62.0390625 121.75390625 -62.0390625 121.75390625 -61.71794128 119.66668701 C-61.09273088 115.60291651 -60.46758457 111.53913616 -59.8425293 107.4753418 C-58.38347508 97.98980899 -56.92383005 88.50436755 -55.46287155 79.01912785 C-54.57928479 73.28244168 -53.69596021 67.54571517 -52.81277847 61.80896664 C-52.15413832 57.53087298 -51.49518329 53.25282799 -50.83594894 48.97482586 C-50.51912352 46.91822193 -50.20259019 44.86157322 -49.8861084 42.80491638 C-49.48008714 40.16652549 -49.07271832 37.5283539 -48.66467285 34.89027405 C-47.78151916 29.16553245 -46.91207236 23.44031557 -46.10302734 17.70458984 C-45.90237923 16.2992524 -45.90237923 16.2992524 -45.69767761 14.86552429 C-45.45753933 13.17115371 -45.22355637 11.47589321 -44.99726868 9.77961731 C-44.4872349 6.19608446 -44.04155865 4.06233797 -42 1 C-39.6875 1.125 -39.6875 1.125 -37 2 C-33.80995441 6.99693859 -33.11529668 12.07217915 -32.25 17.8125 C-30.78480572 26.89522828 -28.99441314 35.87435498 -27.01971436 44.85678101 C-24.004517 58.57852517 -21.53348922 72.30762918 -19.51000977 86.21069336 C-19.32365967 87.48178955 -19.13730957 88.75288574 -18.9453125 90.0625 C-18.70578857 91.75052734 -18.70578857 91.75052734 -18.46142578 93.47265625 C-18.26044055 95.92909572 -18.26044055 95.92909572 -17 97 C-16.91531967 96.39978027 -16.83063934 95.79956055 -16.74339294 95.18115234 C-9.51969957 44.05528285 -9.51969957 44.05528285 -5.125 18.6875 C-4.907939 17.41144897 -4.907939 17.41144897 -4.68649292 16.10961914 C-4.28184539 13.74194954 -3.86593664 11.37659562 -3.4453125 9.01171875 C-3.32790207 8.3216423 -3.21049164 7.63156586 -3.08952332 6.920578 C-2.23091289 2.23091289 -2.23091289 2.23091289 0 0 Z " fill="#BA0707" transform="translate(150,186)"/>
<path d="M0 0 C6.3130463 3.81546064 10.41310316 9.09650399 13.30078125 15.8671875 C14.97016062 18.71778837 17.35171232 19.28197961 20.3125 20.4921875 C27.59703541 24.79418672 29.39094536 34.05026222 31.3828125 41.71484375 C37.45562037 68.26317396 37.45562037 68.26317396 31.84375 79.03125 C30.3828125 80.71484375 30.3828125 80.71484375 27.2265625 82.25 C24.20330679 84.3459884 24.20330679 84.3459884 23.99072266 86.9621582 C24.01767364 89.86520236 24.22731001 92.70025222 24.5078125 95.58984375 C24.65579739 97.66260793 24.80163458 99.73552657 24.9453125 101.80859375 C25.02394531 102.81664062 25.10257812 103.8246875 25.18359375 104.86328125 C25.44573253 108.61546385 25.5078125 112.32845672 25.5078125 116.08984375 C25.51167969 117.71019531 25.51167969 117.71019531 25.515625 119.36328125 C25.3828125 121.71484375 25.3828125 121.71484375 24.3828125 122.71484375 C22.09129833 122.8027535 19.79708726 122.82178413 17.50390625 122.8125 C16.47391258 122.81037758 16.47391258 122.81037758 15.42311096 122.80821228 C13.22213449 122.80259854 11.02125841 122.79004382 8.8203125 122.77734375 C7.33138167 122.77233051 5.84244926 122.7677673 4.35351562 122.76367188 C0.69658175 122.75262468 -2.96029308 122.73535088 -6.6171875 122.71484375 C-8.13399806 115.74192452 -8.95377774 109.05046661 -9.2734375 101.9140625 C-9.60648265 98.81447183 -10.30918275 96.52599913 -11.6171875 93.71484375 C-13.07541962 93.68783945 -14.53379425 93.66844588 -15.9921875 93.65234375 C-16.80429687 93.64074219 -17.61640625 93.62914062 -18.453125 93.6171875 C-20.66655892 93.57018041 -20.66655892 93.57018041 -22.6171875 94.71484375 C-23.07183333 97.41732012 -23.07183333 97.41732012 -23.21484375 100.68359375 C-23.29412109 101.89402344 -23.37339844 103.10445313 -23.45507812 104.3515625 C-23.52919922 105.62644531 -23.60332031 106.90132813 -23.6796875 108.21484375 C-23.83327201 110.72550627 -23.99061411 113.23594275 -24.15234375 115.74609375 C-24.25107788 117.42541992 -24.25107788 117.42541992 -24.35180664 119.13867188 C-24.6171875 121.71484375 -24.6171875 121.71484375 -25.6171875 122.71484375 C-29.73383063 123.05115689 -33.86357239 123.03982749 -37.9921875 123.08984375 C-39.73628906 123.14591797 -39.73628906 123.14591797 -41.515625 123.203125 C-42.629375 123.21472656 -43.743125 123.22632813 -44.890625 123.23828125 C-45.91591309 123.25810059 -46.94120117 123.27791992 -47.99755859 123.29833984 C-50.6171875 122.71484375 -50.6171875 122.71484375 -52.45019531 120.89819336 C-54.22829774 116.04784242 -54.04445063 111.38473584 -54.015625 106.2578125 C-54.01849518 105.12322098 -54.02136536 103.98862946 -54.02432251 102.81965637 C-54.02636477 100.4080048 -54.02082367 97.99633672 -54.00830078 95.5847168 C-53.99253258 91.98120456 -54.00799558 88.37886348 -54.02734375 84.77539062 C-54.05204506 57.18710945 -53.4610435 19.85022221 -32.6171875 -1.28515625 C-23.12137742 -9.12792395 -10.05404601 -4.93698677 0 0 Z M-28.6171875 4.71484375 C-52.38906667 31.61945119 -48.58671171 81.72531326 -46.6171875 114.71484375 C-41.6671875 114.71484375 -36.7171875 114.71484375 -31.6171875 114.71484375 C-31.56820313 113.18472656 -31.51921875 111.65460938 -31.46875 110.078125 C-31.3937009 108.06118031 -31.31815399 106.0442541 -31.2421875 104.02734375 C-31.21125 103.01994141 -31.1803125 102.01253906 -31.1484375 100.97460938 C-31.10976563 99.99814453 -31.07109375 99.02167969 -31.03125 98.015625 C-30.9998291 97.12012939 -30.9684082 96.22463379 -30.93603516 95.30200195 C-30.58718675 92.47141497 -29.85012279 90.28082565 -28.6171875 87.71484375 C-22.02541216 83.10532066 -12.22930192 84.44405707 -4.6171875 84.71484375 C-2.50819156 90.96207961 -1.98839568 97.09995541 -1.4921875 103.65234375 C-1.40582031 104.71775391 -1.31945313 105.78316406 -1.23046875 106.88085938 C-1.01972941 109.49168567 -0.8175909 112.10320375 -0.6171875 114.71484375 C5.6528125 114.71484375 11.9228125 114.71484375 18.3828125 114.71484375 C16.98124441 76.19475986 16.98124441 76.19475986 12.0078125 38.02734375 C11.81082764 36.95097656 11.61384277 35.87460938 11.41088867 34.765625 C9.39237214 24.49245936 6.72594085 13.71785427 -2.39453125 7.50390625 C-10.50048677 3.09453167 -20.40287876 -0.6002972 -28.6171875 4.71484375 Z M17.3828125 28.71484375 C18.10737492 35.43602281 18.9371488 42.13779349 19.8203125 48.83984375 C19.95155518 49.84088135 20.08279785 50.84191895 20.21801758 51.87329102 C21.26146589 59.82200583 22.31586846 67.76924869 23.3828125 75.71484375 C26.09422065 73.50276423 27.27737502 72.32920389 27.87890625 68.82421875 C27.65812755 56.16623976 26.32188239 42.11261759 20.3828125 30.71484375 C19.3928125 30.05484375 18.4028125 29.39484375 17.3828125 28.71484375 Z " fill="#BA0707" transform="translate(53.6171875,191.28515625)"/>
<path d="M0 0 C1.96963501 0.89039612 1.96963501 0.89039612 4 3 C4.63384368 6.23636253 4.52478192 9.46556913 4.48583984 12.75366211 C4.48963654 13.75585281 4.49343323 14.75804352 4.49734497 15.79060364 C4.5047799 19.11983114 4.48330147 22.44819298 4.4609375 25.77734375 C4.45855157 28.10168862 4.45764807 30.42603544 4.4581604 32.75038147 C4.4550258 37.6389666 4.43842846 42.52725988 4.41162109 47.41577148 C4.37796075 53.62751518 4.36998333 59.83893324 4.37151146 66.05075741 C4.37096196 70.8631949 4.35989786 75.67556366 4.34550858 80.48797798 C4.3392154 82.77408898 4.33521956 85.06020766 4.33372116 87.34632683 C4.31451707 101.35616347 3.69446942 115.08862347 2 129 C-0.31 129.33 -2.62 129.66 -5 130 C-7.08331331 126.07448411 -8.58524153 122.41119542 -9.65625 118.1015625 C-9.95104248 116.92360107 -10.24583496 115.74563965 -10.54956055 114.53198242 C-10.86674329 113.22974491 -11.18354328 111.92741413 -11.5 110.625 C-11.84074447 109.24515973 -12.18165132 107.86535956 -12.52270508 106.4855957 C-16.22456426 91.4084913 -19.64589539 76.26325147 -23.0546875 61.11767578 C-25.78984952 49.00675442 -28.7471621 36.9825267 -32 25 C-33.17169312 27.34338624 -33.12677247 28.71929683 -33.12939453 31.33056641 C-33.13250641 32.23825272 -33.13561829 33.14593903 -33.13882446 34.08113098 C-33.13684052 35.07787338 -33.13485657 36.07461578 -33.1328125 37.1015625 C-33.13413177 38.1462822 -33.13545105 39.19100189 -33.1368103 40.26737976 C-33.13874406 43.71994889 -33.13234468 47.17243893 -33.125 50.625 C-33.12411377 51.79751312 -33.12322754 52.97002625 -33.12231445 54.17807007 C-33.10054244 78.79322064 -32.63356271 103.39383981 -32 128 C-35.7265625 130.0390625 -35.7265625 130.0390625 -38.1875 129.6875 C-40 129 -40 129 -41 128 C-41.10248053 126.41274152 -41.13519779 124.82093189 -41.14044189 123.2303772 C-41.14615204 122.19839706 -41.15186218 121.16641693 -41.15774536 120.10316467 C-41.15886322 118.96133224 -41.15998108 117.81949982 -41.16113281 116.64306641 C-41.16609772 115.44805008 -41.17106262 114.25303375 -41.17617798 113.02180481 C-41.18831167 109.73456101 -41.19575134 106.44738103 -41.20018864 103.16012239 C-41.20311592 101.10792927 -41.20722007 99.05574178 -41.21169281 97.00355148 C-41.22537401 90.58724035 -41.23503746 84.17094204 -41.2388947 77.75461733 C-41.24337635 70.33959068 -41.26092642 62.92474828 -41.2898953 55.50977767 C-41.31149052 49.78406412 -41.32159783 44.05840249 -41.32293582 38.33264863 C-41.32398547 34.91026829 -41.32992667 31.488061 -41.34775543 28.06572342 C-41.36473278 24.24891294 -41.36295586 20.43255514 -41.35644531 16.61572266 C-41.3656601 15.47793869 -41.37487488 14.34015472 -41.3843689 13.16789246 C-41.37879974 12.13027267 -41.37323059 11.09265289 -41.36749268 10.02359009 C-41.36895924 9.12060999 -41.3704258 8.21762989 -41.3719368 7.28728676 C-40.92216621 4.52134828 -40.24500471 3.63650829 -38 2 C-35 1.5625 -35 1.5625 -32 2 C-28.19444632 6.18558042 -27.05069317 11.32135121 -25.4375 16.625 C-25.0967041 17.73875 -24.7559082 18.8525 -24.40478516 20 C-19.35781402 36.99079021 -15.53214353 54.31735781 -11.55712891 71.58288574 C-10.71990164 75.21521203 -9.8752492 78.84580513 -9.03125 82.4765625 C-7.67660995 88.31523743 -6.3320001 94.1561191 -5 100 C-3.83916387 95.42097338 -3.87955956 90.92314431 -3.91821289 86.23413086 C-3.92127945 85.36200455 -3.92434601 84.48987823 -3.92750549 83.59132385 C-3.9346442 81.70286574 -3.94402562 79.81441506 -3.95540047 77.92597771 C-3.97281364 74.93783449 -3.98309676 71.94974491 -3.99131775 68.96156311 C-4.01575546 60.46740652 -4.0514117 51.97332249 -4.09594727 43.47924805 C-4.12271033 38.27990253 -4.13976501 33.08059847 -4.15081596 27.88119698 C-4.15702799 25.90002468 -4.16703608 23.91886054 -4.18089485 21.93772697 C-4.20008493 19.17058904 -4.20700326 16.40367007 -4.21118164 13.63647461 C-4.21994324 12.81714447 -4.22870483 11.99781433 -4.23773193 11.15365601 C-4.22546667 4.04799411 -4.22546667 4.04799411 -2 1 C-1.34 0.67 -0.68 0.34 0 0 Z " fill="#BA0807" transform="translate(266,185)"/>
<path d="M0 0 C5.55262322 1.8543865 10.11653916 4.79808078 13 10 C26.47067011 41.56209333 24.4272149 85.463074 13.02734375 117.46875 C11.14975963 122.09488883 9.40619937 125.03128488 5.1875 127.9375 C1.24305056 129.25231648 -0.99912476 129.09114779 -5 128 C-10.907989 124.9053391 -13.01886278 119.05311632 -15 113 C-18.3425579 99.41447565 -20.15033506 85.72641881 -20.16796875 71.7421875 C-20.17129715 70.79546173 -20.17462555 69.84873596 -20.17805481 68.87332153 C-20.1830838 66.88169841 -20.18546439 64.89006697 -20.18530273 62.8984375 C-20.18747929 59.90349902 -20.20565137 56.9089356 -20.22460938 53.9140625 C-20.34267246 14.34448004 -20.34267246 14.34448004 -10 2 C-6.20991318 -0.52672455 -4.50802658 -0.44341245 0 0 Z M-5.2109375 9.640625 C-14.13497168 21.40943864 -12.34945342 43.28641092 -12.31567383 57.42504883 C-12.31252328 60.16723829 -12.33604553 62.90833403 -12.36132812 65.65039062 C-12.90192398 93.0221155 -12.90192398 93.0221155 -3.53125 117.83984375 C-1.98787295 119.25970445 -1.98787295 119.25970445 0.5 118.9375 C3.60141719 117.77446855 4.25932697 116.79800493 6 114 C9.39147692 104.28420313 10.96387148 94.20859259 12 84 C12.11214844 82.9171875 12.22429687 81.834375 12.33984375 80.71875 C14.40829962 56.91733995 14.62822476 32.27757749 3.44140625 10.64453125 C2.05105393 8.81178422 2.05105393 8.81178422 -0.41015625 8.01171875 C-3.11222108 7.74070388 -3.11222108 7.74070388 -5.2109375 9.640625 Z " fill="#BD0606" transform="translate(197,186)"/>
<path d="M0 0 C1.66611905 -0.042721 3.33382885 -0.04063832 5 0 C7.09424181 2.09424181 6.30655983 6.63744149 6.39453125 9.53515625 C6.46078394 11.37657239 6.52779431 13.21796138 6.59545898 15.05932617 C6.63033417 16.03759369 6.66520935 17.01586121 6.70114136 18.02377319 C7.30966662 34.62905859 8.25772328 51.15474953 9.9375 67.6875 C10.0566124 68.88779343 10.0566124 68.88779343 10.1781311 70.11233521 C11.04116654 78.70992728 12.12006037 87.25242906 13.51171875 95.78125 C13.63103256 96.52054245 13.75034637 97.2598349 13.87327576 98.02153015 C15.10760981 105.283036 16.98629785 111.2243565 21.3125 117.1875 C23.94482987 119.29773247 23.94482987 119.29773247 27.5 119.1875 C31.69972962 117.76259174 33.6663836 115.63775555 36 112 C36.92692902 109.42364141 37.6183785 107.14366118 38.1875 104.5 C38.49042969 103.2315625 38.79335938 101.963125 39.10546875 100.65625 C41.38370193 89.46770628 42.42894733 78.19783406 43.0625 66.8125 C43.10391113 66.11042419 43.14532227 65.40834839 43.18798828 64.68499756 C43.74055909 55.24743486 44.08478968 45.8149894 44.27734375 36.36328125 C44.29740982 35.38645889 44.31747589 34.40963654 44.33815002 33.4032135 C44.43331594 28.57464945 44.51211238 23.74638254 44.57055664 18.91723633 C44.59905229 17.14534394 44.62761354 15.37345261 44.65625 13.6015625 C44.6614415 12.78951859 44.666633 11.97747467 44.67198181 11.14082336 C44.74086353 7.30346144 44.82397727 4.25208986 47 1 C48.66611905 0.957279 50.33382885 0.95936168 52 1 C53.80320328 2.80320328 53.13039098 5.54300859 53.1328125 7.97265625 C53.13498779 9.24834473 53.13716309 10.5240332 53.1394043 11.83837891 C53.1353372 13.24642158 53.13051472 14.65446225 53.125 16.0625 C53.12311676 16.77605652 53.12123352 17.48961304 53.11929321 18.22479248 C52.85166314 105.31234474 52.85166314 105.31234474 39 124 C34.91605774 127.64948031 31.47534659 128.90559747 26 129 C20.03245091 127.98575253 16.25613502 125.01222817 12.53125 120.34765625 C4.52420759 108.07155297 3.67224201 90.95761067 2.11962891 76.68383789 C1.87471068 74.43484327 1.61978434 72.18715308 1.36328125 69.93945312 C-0.30406107 55.14613182 -1.20328046 40.37990722 -1.61254883 25.50097656 C-1.68838452 22.84401 -1.77882127 20.18775885 -1.86914062 17.53125 C-1.9175643 15.83075449 -1.9651229 14.13023408 -2.01171875 12.4296875 C-2.04077805 11.64117401 -2.06983734 10.85266052 -2.09977722 10.04025269 C-2.18845679 6.1918492 -2.20703881 3.25367021 0 0 Z " fill="#BE0505" transform="translate(390,186)"/>
<path d="M0 0 C1.093125 0.721875 2.18625 1.44375 3.3125 2.1875 C4.116875 2.661875 4.92125 3.13625 5.75 3.625 C7.85692976 5.73192976 8.16512563 7.2400127 8.3125 10.1875 C7.6525 11.1775 6.9925 12.1675 6.3125 13.1875 C2.28258745 12.69902575 -0.41021232 11.17313799 -3.86328125 9.11328125 C-7.67218527 7.18028285 -11.57241254 7.23301377 -15.75 7.0625 C-20.55902387 8.90425382 -22.41328846 12.72628857 -24.6875 17.1875 C-28.27631492 25.80334406 -29.12922526 34.31415645 -25.76171875 43.13671875 C-22.22726775 49.88430703 -14.49486542 53.14732591 -8.17675781 56.87329102 C1.82188595 62.80640145 10.59316928 70.82577029 13.87109375 82.453125 C15.88255461 94.91350203 14.75323317 105.45326663 7.99609375 116.30078125 C3.65552402 122.07584126 -2.52953867 125.25065753 -9.49609375 126.8203125 C-15.48131579 127.60063271 -20.42413289 127.28783953 -25.6875 124.1875 C-32.0749859 118.96137517 -35.41111739 112.23968245 -36.6875 104.1875 C-36.94207604 99.72545687 -36.92200427 95.28037949 -36.875 90.8125 C-36.87435547 89.62527344 -36.87371094 88.43804687 -36.87304688 87.21484375 C-36.82817 78.46884001 -36.82817 78.46884001 -35.6875 76.1875 C-33.25 76.5625 -33.25 76.5625 -30.6875 77.1875 C-29.32370877 79.91508245 -29.49658635 82.51121874 -29.39746094 85.51098633 C-29.11130021 100.37030798 -29.11130021 100.37030798 -23.5625 113.875 C-19.65423168 117.01860713 -16.63283618 117.51884581 -11.6875 117.1875 C-5.63634176 116.20320809 -1.94620405 113.13968312 1.8359375 108.43359375 C5.49393978 102.86917229 7.11295371 96.81983071 6.3125 90.1875 C3.7400159 79.09151857 -2.6535444 71.55504073 -12.125 65.4375 C-14.84918709 63.79688313 -17.59236051 62.23822278 -20.3984375 60.7421875 C-27.6957716 56.73194083 -31.63905884 52.14614032 -34.8203125 44.4453125 C-37.65058128 33.81268112 -36.66542195 20.9635856 -31.6875 11.1875 C-24.41318888 -0.66306831 -13.89156124 -6.85387048 0 0 Z " fill="#BD0606" transform="translate(485.6875,187.8125)"/>
<path d="M0 0 C0.94488281 -0.01417969 1.88976562 -0.02835938 2.86328125 -0.04296875 C5.88926916 0.20396526 8.01157909 0.75685667 10.6875 2.1875 C12.16118421 7.24013158 12.16118421 7.24013158 10.6875 10.1875 C9.79546875 10.17589844 8.9034375 10.16429687 7.984375 10.15234375 C6.81390625 10.14332031 5.6434375 10.13429687 4.4375 10.125 C3.27734375 10.11339844 2.1171875 10.10179687 0.921875 10.08984375 C-2.81367202 10.14219859 -2.81367202 10.14219859 -6.3125 11.1875 C-7.5214136 12.9898115 -7.5214136 12.9898115 -8.3125 15.1875 C-8.79009766 16.18523437 -8.79009766 16.18523437 -9.27734375 17.203125 C-20.22188641 42.34480533 -21.32084861 84.22337057 -12.3125 109.9375 C-11.16840888 112.63683999 -9.95348429 114.72602357 -8.3125 117.1875 C-5.9837213 117.66574351 -5.9837213 117.66574351 -3.375 117.5625 C-2.49972656 117.57023437 -1.62445313 117.57796875 -0.72265625 117.5859375 C1.69866252 117.36439418 1.69866252 117.36439418 3.40234375 115.984375 C5.01065683 113.73566978 5.61884689 111.73801916 6.3125 109.0625 C6.55226563 108.17304688 6.79203125 107.28359375 7.0390625 106.3671875 C8.78839923 97.7891146 8.95037351 89.11661793 9.1171875 80.38867188 C9.148125 79.48826172 9.1790625 78.58785156 9.2109375 77.66015625 C9.23075684 76.84812744 9.25057617 76.03609863 9.27099609 75.19946289 C9.6875 73.1875 9.6875 73.1875 12.6875 71.1875 C15.56161708 70.99206004 18.31632717 70.90874034 21.1875 70.9375 C21.95964844 70.92976563 22.73179687 70.92203125 23.52734375 70.9140625 C27.42381468 70.92756847 29.37737247 70.98074831 32.6875 73.1875 C31.9375 77.9375 31.9375 77.9375 29.6875 80.1875 C26.8671875 80.3828125 26.8671875 80.3828125 23.5625 80.3125 C22.46679688 80.29445313 21.37109375 80.27640625 20.2421875 80.2578125 C19.39914062 80.23460937 18.55609375 80.21140625 17.6875 80.1875 C17.73970703 81.87552734 17.73970703 81.87552734 17.79296875 83.59765625 C18.08819851 97.27713466 17.66212901 111.44772357 9.6875 123.1875 C4.45307262 128.17846565 0.73122518 128.56790678 -6.3359375 128.44140625 C-10.60870246 128.07693155 -12.32645137 127.31574143 -15.3125 124.1875 C-30.86865621 100.4883682 -28.08848266 58.04531221 -23.3125 31.1875 C-20.79087175 19.73774697 -17.19131885 8.21243785 -7.3125 1.1875 C-4.75330818 -0.09209591 -2.85765972 0.01933464 0 0 Z " fill="#B90707" transform="translate(301.3125,185.8125)"/>
<path d="M0 0 C4.47056909 6.87779859 6.15264516 16.39032323 5.625 24.5 C4.21016593 28.07900619 2.96563062 29.29544258 -0.34765625 31.28515625 C-5.35977392 33.14973245 -10.5309124 32.97486171 -15.8125 32.9375 C-17.31006836 32.9674707 -17.31006836 32.9674707 -18.83789062 32.99804688 C-25.99686666 32.99334012 -31.61111655 31.88055555 -37.04345703 27.00146484 C-38.95650541 24.84428708 -39.13963705 23.37621505 -39.375 20.5 C-39.02688834 17.75688012 -38.60954624 15.13807668 -38.0625 12.4375 C-37.93166016 11.73044922 -37.80082031 11.02339844 -37.66601562 10.29492188 C-36.320659 3.37315953 -36.320659 3.37315953 -34.375 0.5 C-24.77407076 -4.68450179 -9.58441792 -6.05331658 0 0 Z M-28.375 5.5 C-32.0003622 10.3754871 -33.25109329 15.46469065 -32.375 21.5 C-30.49393101 24.21709965 -29.31882953 25.25627279 -26.12109375 26.08203125 C-17.35861536 27.41572284 -9.56748013 26.83253429 -1.375 23.5 C-0.98670842 17.54619576 -1.82300066 11.94680457 -4.375 6.5 C-6.7786878 3.95656291 -8.10785956 3.5299326 -11.6171875 3.13671875 C-12.81601562 3.15347656 -14.01484375 3.17023438 -15.25 3.1875 C-17.04050781 3.19330078 -17.04050781 3.19330078 -18.8671875 3.19921875 C-22.38189252 3.50059101 -25.13323462 4.12355496 -28.375 5.5 Z " fill="#C10404" transform="translate(52.375,210.5)"/>
<path d="M0 0 C0 29.04 0 58.08 0 88 C0.66 88 1.32 88 2 88 C2.33 89.65 2.66 91.3 3 93 C0.69 93 -1.62 93 -4 93 C-4 62.64 -4 32.28 -4 1 C-2 0 -2 0 0 0 Z " fill="#C50101" transform="translate(231,220)"/>
<path d="M0 0 C2.375 0.0625 2.375 0.0625 5 1 C9.14607274 7.51525717 9.1390248 13.85427493 9.0625 21.3125 C9.05798828 22.14845703 9.05347656 22.98441406 9.04882812 23.84570312 C9.03710548 25.89716649 9.01917203 27.94859273 9 30 C8.01 30.33 7.02 30.66 6 31 C5.67 30.01 5.34 29.02 5 28 C4.01 27.67 3.02 27.34 2 27 C2 27.66 2 28.32 2 29 C1.34 29 0.68 29 0 29 C-0.33 33.62 -0.66 38.24 -1 43 C-3.475 43.495 -3.475 43.495 -6 44 C-5.85970581 41.8537974 -5.71261836 39.70803782 -5.5625 37.5625 C-5.48128906 36.36753906 -5.40007812 35.17257813 -5.31640625 33.94140625 C-5 31 -5 31 -4 30 C-3.86703792 28.53367693 -3.79666281 27.06156184 -3.75390625 25.58984375 C-3.72103516 24.68169922 -3.68816406 23.77355469 -3.65429688 22.83789062 C-3.59396735 20.93173435 -3.53658681 19.02548203 -3.48242188 17.11914062 C-2.95486998 2.95486998 -2.95486998 2.95486998 0 0 Z " fill="#C70201" transform="translate(108,187)"/>
<path d="M0 0 C0.33 0 0.66 0 1 0 C1 3.3 1 6.6 1 10 C0.34 10 -0.32 10 -1 10 C-1 25.18 -1 40.36 -1 56 C-1.99 55.67 -2.98 55.34 -4 55 C-4.33 55.66 -4.66 56.32 -5 57 C-8.30130625 49.02111735 -8.41991405 41.81734437 -8.3125 33.25 C-8.31572266 31.94933594 -8.31894531 30.64867187 -8.32226562 29.30859375 C-8.26486557 19.17487466 -8.26486557 19.17487466 -6 14 C-5.71878758 11.73703593 -5.51295111 9.46369338 -5.375 7.1875 C-5.30023438 6.02605469 -5.22546875 4.86460937 -5.1484375 3.66796875 C-5.09945313 2.78753906 -5.05046875 1.90710938 -5 1 C-4.01 1.66 -3.02 2.32 -2 3 C-1.34 2.01 -0.68 1.02 0 0 Z " fill="#C30202" transform="translate(284,219)"/>
<path d="M0 0 C0.99 0 1.98 0 3 0 C3 6.93 3 13.86 3 21 C10.59 21 18.18 21 26 21 C26 21.99 26 22.98 26 24 C26.99 24 27.98 24 29 24 C29.33 25.32 29.66 26.64 30 28 C19.77 28 9.54 28 -1 28 C-1.20625 23.75125 -1.4125 19.5025 -1.625 15.125 C-1.69541504 13.7858252 -1.76583008 12.44665039 -1.83837891 11.06689453 C-1.88397949 10.01614746 -1.92958008 8.96540039 -1.9765625 7.8828125 C-2.02893066 6.80402832 -2.08129883 5.72524414 -2.13525391 4.61376953 C-2 2 -2 2 0 0 Z " fill="#C20303" transform="translate(48,286)"/>
<path d="M0 0 C0.8971875 0.309375 0.8971875 0.309375 1.8125 0.625 C0.8225 1.285 -0.1675 1.945 -1.1875 2.625 C-2.37982613 4.67503955 -2.37982613 4.67503955 -3.1875 6.625 C-3.8475 6.625 -4.5075 6.625 -5.1875 6.625 C-5.1875 7.615 -5.1875 8.605 -5.1875 9.625 C-4.1975 9.955 -3.2075 10.285 -2.1875 10.625 C-2.1875 9.305 -2.1875 7.985 -2.1875 6.625 C-0.8675 6.295 0.4525 5.965 1.8125 5.625 C1.52375 6.15867188 1.235 6.69234375 0.9375 7.2421875 C-2.04182515 13.22152755 -2.6860299 17.99178275 -2.1875 24.625 C7.81921198 27.76436062 17.75403269 27.35271995 27.8125 24.625 C24.39146254 28.25487986 21.29416846 29.4390646 16.2578125 29.81640625 C10.41659723 29.93776114 5.39961129 29.31167511 -0.1875 27.625 C0.4725 29.275 1.1325 30.925 1.8125 32.625 C-3.10491794 32.19111018 -5.7464194 30.0660806 -9.1875 26.625 C-10.73751284 22.16770919 -9.78631271 18.06133333 -8.875 13.5625 C-8.74416016 12.85544922 -8.61332031 12.14839844 -8.47851562 11.41992188 C-7.14850859 4.57713207 -7.14850859 4.57713207 -5.1875 1.625 C-2.1875 -0.375 -2.1875 -0.375 0 0 Z " fill="#AC0E0D" transform="translate(23.1875,209.375)"/>
<path d="M0 0 C3.14785939 3.14785939 3.87181331 7.18956846 5.1875 11.375 C5.47302734 12.23867187 5.75855469 13.10234375 6.05273438 13.9921875 C6.45008789 15.24515625 6.45008789 15.24515625 6.85546875 16.5234375 C7.09934326 17.28575684 7.34321777 18.04807617 7.59448242 18.83349609 C8.04318602 21.2307241 7.76208708 22.70625135 7 25 C5.33333333 25 3.66666667 25 2 25 C1.67 26.32 1.34 27.64 1 29 C0.34 26.36 -0.32 23.72 -1 21 C-2.7026057 24.40521141 -2.12864821 28.29392119 -2.11352539 32.03955078 C-2.11367142 32.97618561 -2.11381744 33.91282043 -2.1139679 34.87783813 C-2.11326944 37.98368622 -2.10548015 41.08947485 -2.09765625 44.1953125 C-2.09579183 46.34479744 -2.09436804 48.4942828 -2.09336853 50.64376831 C-2.08954522 56.30895149 -2.07971651 61.97410915 -2.06866455 67.63928223 C-2.05844644 73.41707006 -2.05387005 79.194862 -2.04882812 84.97265625 C-2.03809409 96.3151154 -2.02101989 107.65755558 -2 119 C-2.66 119 -3.32 119 -4 119 C-4.0231314 105.99616434 -4.04091918 92.99233354 -4.05181217 79.98848152 C-4.05703924 73.95080974 -4.06413373 67.91315199 -4.07543945 61.87548828 C-4.08627454 56.05297583 -4.09227816 50.23047692 -4.09487724 44.40795517 C-4.09673037 42.18231874 -4.10034883 39.95668309 -4.10573006 37.7310524 C-4.1129487 34.62293118 -4.11399059 31.51486648 -4.11352539 28.40673828 C-4.11712067 27.47885498 -4.12071594 26.55097168 -4.12442017 25.5949707 C-4.1230455 24.75080597 -4.12167084 23.90664124 -4.12025452 23.03689575 C-4.12117631 22.30130495 -4.1220981 21.56571415 -4.12304783 20.80783272 C-4 19 -4 19 -3 17 C-1.68 17.33 -0.36 17.66 1 18 C0.67 18.66 0.34 19.32 0 20 C0.99 20 1.98 20 3 20 C3.28992772 14.58801587 2.86812076 10.81560392 0.65625 5.859375 C0 4 0 4 0 0 Z " fill="#AD0E0E" transform="translate(235,189)"/>
<path d="M0 0 C2.61616449 2.61616449 2.54800281 4.31976935 3.0703125 7.9609375 C3.24433594 9.15460938 3.41835937 10.34828125 3.59765625 11.578125 C3.77167969 12.83109375 3.94570312 14.0840625 4.125 15.375 C4.30675781 16.62023437 4.48851562 17.86546875 4.67578125 19.1484375 C6 28.38809915 6 28.38809915 6 33 C5.34 33 4.68 33 4 33 C3.505 31.515 3.505 31.515 3 30 C2.34 29.67 1.68 29.34 1 29 C0.67 32.3 0.34 35.6 0 39 C0.66 39 1.32 39 2 39 C2 44.61 2 50.22 2 56 C1.67 56 1.34 56 1 56 C-0.32 45.44 -1.64 34.88 -3 24 C-3.66 28.29 -4.32 32.58 -5 37 C-5.495 35.515 -5.495 35.515 -6 34 C-6.99 33.67 -7.98 33.34 -9 33 C-9 30 -9 30 -7 28 C-6.67 27.01 -6.34 26.02 -6 25 C-5 22 -5 22 -3 20 C-2.7834375 19.1028125 -2.7834375 19.1028125 -2.5625 18.1875 C-1.85839572 15.44931669 -0.45728214 13.40768354 1 11 C1 10.34 1 9.68 1 9 C0.34 8.67 -0.32 8.34 -1 8 C-0.835 7.236875 -0.67 6.47375 -0.5 5.6875 C0.09145396 2.96403764 0.09145396 2.96403764 0 0 Z " fill="#B70909" transform="translate(155,188)"/>
<path d="M0 0 C0.66 0 1.32 0 2 0 C1.67 0.66 1.34 1.32 1 2 C0.67 1.34 0.34 0.68 0 0 Z M-3 1 C-2.01 1 -1.02 1 0 1 C-0.3846179 6.67311399 -0.82305585 9.82305585 -5 14 C-5.99 14.495 -5.99 14.495 -7 15 C-7.47001033 18.27555608 -7.47001033 18.27555608 -7.625 22.0625 C-7.69976562 23.35285156 -7.77453125 24.64320313 -7.8515625 25.97265625 C-7.90054688 26.97167969 -7.94953125 27.97070312 -8 29 C-9.32 29.33 -10.64 29.66 -12 30 C-14.26598448 26.60102327 -14.23742654 25.43680827 -14.1953125 21.45703125 C-14.18886719 20.38388672 -14.18242188 19.31074219 -14.17578125 18.20507812 C-14.15064453 16.52575195 -14.15064453 16.52575195 -14.125 14.8125 C-14.11597656 13.68134766 -14.10695313 12.55019531 -14.09765625 11.38476562 C-14.07406862 8.58963172 -14.041153 5.79492155 -14 3 C-13.34 3 -12.68 3 -12 3 C-12 3.99 -12 4.98 -12 6 C-9.36 5.67 -6.72 5.34 -4 5 C-3.67 3.68 -3.34 2.36 -3 1 Z " fill="#C40302" transform="translate(85,261)"/>
<path d="M0 0 C0.33 0 0.66 0 1 0 C1 10.89 1 21.78 1 33 C1.99 33 2.98 33 4 33 C4.33 29.37 4.66 25.74 5 22 C5.66 22 6.32 22 7 22 C6.85771699 24.83355099 6.71126584 27.66678787 6.5625 30.5 C6.50352539 31.68722656 6.50352539 31.68722656 6.44335938 32.8984375 C6.17294782 37.97385441 5.6872858 42.96375445 5 48 C3.35 47.34 1.7 46.68 0 46 C-0.28875 46.5775 -0.5775 47.155 -0.875 47.75 C-2.4375 50.875 -2.4375 50.875 -4 54 C-3.56071662 48.41647707 -3.09132894 42.83764215 -2.5234375 37.265625 C-1.26794183 24.85043106 -0.48005832 12.46888321 0 0 Z " fill="#B40B09" transform="translate(434,234)"/>
<path d="M0 0 C1.66611905 -0.042721 3.33382885 -0.04063832 5 0 C6.80320328 1.80320328 6.13039098 4.54300859 6.1328125 6.97265625 C6.13571289 8.88981445 6.13571289 8.88981445 6.13867188 10.84570312 C6.13455181 12.25130343 6.12998382 13.65690249 6.125 15.0625 C6.12411377 15.76608643 6.12322754 16.46967285 6.12231445 17.19458008 C6.09887264 33.14042286 5.60198038 49.066732 5 65 C4.67 65 4.34 65 4 65 C4 44.21 4 23.42 4 2 C2.68 2 1.36 2 0 2 C0 12.56 0 23.12 0 34 C-0.66 34 -1.32 34 -2 34 C-2.04953687 29.80079763 -2.08578411 25.60175131 -2.10986328 21.40234375 C-2.11990427 19.97457922 -2.13353981 18.54683517 -2.15087891 17.11914062 C-2.17521152 15.06375059 -2.18650202 13.00863308 -2.1953125 10.953125 C-2.20578613 9.71723633 -2.21625977 8.48134766 -2.22705078 7.20800781 C-2.01298081 4.18340629 -1.59653159 2.53014349 0 0 Z " fill="#A81212" transform="translate(437,187)"/>
<path d="M0 0 C0.33 0 0.66 0 1 0 C1.65764731 11.01559238 2.16207546 21.96086055 2 33 C1.34 32.67 0.68 32.34 0 32 C0 31.34 0 30.68 0 30 C-0.99 30 -1.98 30 -3 30 C-3 29.01 -3 28.02 -3 27 C-3.99 27.33 -4.98 27.66 -6 28 C-6 21.33333333 -6 14.66666667 -6 8 C-5.360625 8.33 -4.72125 8.66 -4.0625 9 C-2.23205433 10.07271225 -2.23205433 10.07271225 -1 10 C-0.67 6.7 -0.34 3.4 0 0 Z " fill="#B70A09" transform="translate(77,280)"/>
<path d="M0 0 C0.33 0 0.66 0 1 0 C1.50666472 4.18672147 2.00413918 8.37448633 2.5 12.5625 C2.64308594 13.74392578 2.78617188 14.92535156 2.93359375 16.14257812 C3.59866722 21.79570264 4.20065423 27.30643621 4 33 C3.34 33 2.68 33 2 33 C1.67 31.02 1.34 29.04 1 27 C0.01 27 -0.98 27 -2 27 C-2 32.28 -2 37.56 -2 43 C-2.33 43 -2.66 43 -3 43 C-3.50804717 38.52170835 -4.00497554 34.04224835 -4.5 29.5625 C-4.64308594 28.30244141 -4.78617188 27.04238281 -4.93359375 25.74414062 C-5.66029548 19.11731291 -6.17409324 12.66632042 -6 6 C-5.01 6.495 -5.01 6.495 -4 7 C-4 11.62 -4 16.24 -4 21 C-0.84889597 19.40040156 -0.84889597 19.40040156 -0.56762695 17.02880859 C-0.54144287 16.24328613 -0.51525879 15.45776367 -0.48828125 14.6484375 C-0.43510742 13.37226563 -0.43510742 13.37226563 -0.38085938 12.0703125 C-0.34702148 10.73613281 -0.34702148 10.73613281 -0.3125 9.375 C-0.27833984 8.4778125 -0.24417969 7.580625 -0.20898438 6.65625 C-0.12637598 4.43762462 -0.05727281 2.2194006 0 0 Z " fill="#B10D0B" transform="translate(165,257)"/>
<path d="M0 0 C0.33 0 0.66 0 1 0 C0.67 5.94 0.34 11.88 0 18 C0.99 18 1.98 18 3 18 C3 17.34 3 16.68 3 16 C2.34 15.67 1.68 15.34 1 15 C1.66 13.68 2.32 12.36 3 11 C3.66 11 4.32 11 5 11 C5.33 7.7 5.66 4.4 6 1 C6.66 1 7.32 1 8 1 C6.98074847 9.73953968 5.94183957 18.40632701 4 27 C-1.75 28.125 -1.75 28.125 -4 27 C-2.68 18.09 -1.36 9.18 0 0 Z " fill="#AC0D0E" transform="translate(91,287)"/>
<path d="M0 0 C1.32 0 2.64 0 4 0 C4.33801152 2.54112232 4.67053379 5.08276746 5 7.625 C5.09539062 8.33785156 5.19078125 9.05070312 5.2890625 9.78515625 C6.71935096 20.92097356 6.71935096 20.92097356 4 25 C3.34 25 2.68 25 2 25 C2 23.35 2 21.7 2 20 C1.01 19.67 0.02 19.34 -1 19 C-1.8723255 15.22457523 -2.16344601 11.68519302 -2.1875 7.8125 C-2.20167969 6.76707031 -2.21585937 5.72164063 -2.23046875 4.64453125 C-2 2 -2 2 0 0 Z " fill="#C20403" transform="translate(397,270)"/>
<path d="M0 0 C0.66 0 1.32 0 2 0 C2 16.5 2 33 2 50 C0.35 50 -1.3 50 -3 50 C-2.67 51.32 -2.34 52.64 -2 54 C-2.66 54 -3.32 54 -4 54 C-4 56.31 -4 58.62 -4 61 C-4.33 61 -4.66 61 -5 61 C-6.0712828 54.97403427 -6.09945415 49.11090483 -6 43 C-5.01 43.66 -4.02 44.32 -3 45 C-2.34 45 -1.68 45 -1 45 C-0.67 30.15 -0.34 15.3 0 0 Z " fill="#AC1110" transform="translate(283,229)"/>
<path d="M0 0 C1.32 0.33 2.64 0.66 4 1 C4 3.31 4 5.62 4 8 C4.66 8 5.32 8 6 8 C6.24803781 10.79117245 6.47414334 13.58115074 6.6875 16.375 C6.76033203 17.1690625 6.83316406 17.963125 6.90820312 18.78125 C7.07421875 21.0859375 7.07421875 21.0859375 7 25 C6.01 25.66 5.02 26.32 4 27 C4 24.69 4 22.38 4 20 C3.01 19.67 2.02 19.34 1 19 C0.15976812 14.64667264 -0.10770995 10.55557481 -0.0625 6.125 C-0.05347656 4.97257813 -0.04445313 3.82015625 -0.03515625 2.6328125 C-0.02355469 1.76398438 -0.01195313 0.89515625 0 0 Z " fill="#C60201" transform="translate(79,230)"/>
<path d="M0 0 C2.475 0.99 2.475 0.99 5 2 C5 3.32 5 4.64 5 6 C5.99 6.33 6.98 6.66 8 7 C8 8.32 8 9.64 8 11 C8.99 11 9.98 11 11 11 C11 11.66 11 12.32 11 13 C12.65 13 14.3 13 16 13 C16 14.98 16 16.96 16 19 C15.2575 18.979375 14.515 18.95875 13.75 18.9375 C11.29537721 18.99328688 9.33890739 19.3069904 7 20 C7.33 17.36 7.66 14.72 8 12 C7.401875 11.938125 6.80375 11.87625 6.1875 11.8125 C3.06143387 10.65138972 2.4668849 8.93376981 1 6 C0.30177383 4.34630643 -0.37498605 2.68272986 -1 1 C-0.67 0.67 -0.34 0.34 0 0 Z " fill="#C70203" transform="translate(58,200)"/>
<path d="M0 0 C3.21107147 1.60553573 3.45574161 4.45419565 4.625 7.75 C5.07101563 8.98234375 5.51703125 10.2146875 5.9765625 11.484375 C6.87700629 14.57750252 7.23061312 16.81996652 7 20 C6.34 20 5.68 20 5 20 C4.67 18.35 4.34 16.7 4 15 C3.34 15.66 2.68 16.32 2 17 C1.67 17.33 1.34 17.66 1 18 C0.92820036 19.51928038 0.91607993 21.04167482 0.9375 22.5625 C0.94652344 23.38878906 0.95554688 24.21507812 0.96484375 25.06640625 C0.97644531 25.70449219 0.98804688 26.34257812 1 27 C0.67 27 0.34 27 0 27 C-0.25394531 25.91460937 -0.50789062 24.82921875 -0.76953125 23.7109375 C-1.11680382 22.26553276 -1.46448164 20.82022535 -1.8125 19.375 C-1.97814453 18.66214844 -2.14378906 17.94929688 -2.31445312 17.21484375 C-3.16416623 13.71979738 -4.07623052 10.84753896 -5.69921875 7.6015625 C-6.12847656 6.74304688 -6.55773437 5.88453125 -7 5 C-6.67 4.34 -6.34 3.68 -6 3 C-4 4.8125 -4 4.8125 -2 7 C-2 7.99 -2 8.98 -2 10 C-0.35 10.33 1.3 10.66 3 11 C3 10.01 3 9.02 3 8 C2.01 7.67 1.02 7.34 0 7 C0 4.69 0 2.38 0 0 Z " fill="#B20B09" transform="translate(208,195)"/>
<path d="M0 0 C0.99 0.33 1.98 0.66 3 1 C3.06058594 2.02480469 3.12117188 3.04960937 3.18359375 4.10546875 C3.26805026 5.46615695 3.35269567 6.82683343 3.4375 8.1875 C3.47681641 8.86103516 3.51613281 9.53457031 3.55664062 10.22851562 C3.78927565 13.89699102 4.17207011 17.41694206 5 21 C3.02 21.99 3.02 21.99 1 23 C1 21.68 1 20.36 1 19 C0.34 19 -0.32 19 -1 19 C-1 16.69 -1 14.38 -1 12 C-1.66 12 -2.32 12 -3 12 C-3.15384615 4 -3.15384615 4 -2 1 C-1.34 0.67 -0.68 0.34 0 0 Z " fill="#C60202" transform="translate(282,278)"/>
<path d="M0 0 C0.99 0 1.98 0 3 0 C3 3.3 3 6.6 3 10 C3.66 10 4.32 10 5 10 C5.33 14.62 5.66 19.24 6 24 C4.35 24.33 2.7 24.66 1 25 C1 21.37 1 17.74 1 14 C0.34 14 -0.32 14 -1 14 C-1.02685938 11.85423363 -1.04633088 9.70837355 -1.0625 7.5625 C-1.07410156 6.36753906 -1.08570312 5.17257812 -1.09765625 3.94140625 C-1 1 -1 1 0 0 Z " fill="#C60201" transform="translate(124,258)"/>
<path d="M0 0 C2.475 0.99 2.475 0.99 5 2 C4.67 5.63 4.34 9.26 4 13 C3.34 13 2.68 13 2 13 C2 17.29 2 21.58 2 26 C1.01 26.33 0.02 26.66 -1 27 C-2.18681726 23.43954823 -2.09689832 20.56191663 -2.0625 16.8125 C-2.05347656 15.54019531 -2.04445312 14.26789063 -2.03515625 12.95703125 C-2.02355469 11.98121094 -2.01195312 11.00539062 -2 10 C-1.34 10 -0.68 10 0 10 C0 6.7 0 3.4 0 0 Z " fill="#C70101" transform="translate(141,236)"/>
<path d="M0 0 C0.71994141 0.00064453 1.43988281 0.00128906 2.18164062 0.00195312 C5.35499137 0.02847138 7.90799394 0.17766465 10.9375 1.1875 C10.9375 2.1775 10.9375 3.1675 10.9375 4.1875 C4.9975 4.1875 -0.9425 4.1875 -7.0625 4.1875 C-7.0625 4.8475 -7.0625 5.5075 -7.0625 6.1875 C-8.7125 6.5175 -10.3625 6.8475 -12.0625 7.1875 C-12.0625 8.5075 -12.0625 9.8275 -12.0625 11.1875 C-13.3825 10.8575 -14.7025 10.5275 -16.0625 10.1875 C-15.0625 7.1875 -15.0625 7.1875 -12.0625 5.1875 C-12.0625 4.1975 -12.0625 3.2075 -12.0625 2.1875 C-8.26028524 -0.32414578 -4.38609829 -0.07500978 0 0 Z " fill="#C60202" transform="translate(33.0625,208.8125)"/>
<path d="M0 0 C2.29013653 3.4352048 2.17842973 4.985331 2 9 C2.66 9 3.32 9 4 9 C4.32712342 15.13053511 4.39366878 19.62669111 1 25 C0.690625 24.360625 0.38125 23.72125 0.0625 23.0625 C-0.8345163 21.06389179 -0.8345163 21.06389179 -2 20 C-2.07325168 17.13732433 -2.09238205 14.299281 -2.0625 11.4375 C-2.05798828 10.63119141 -2.05347656 9.82488281 -2.04882812 8.99414062 C-2.03700518 6.99606244 -2.01906914 4.99802217 -2 3 C-1.34 3 -0.68 3 0 3 C0 2.01 0 1.02 0 0 Z " fill="#C60202" transform="translate(165,281)"/>
<path d="M0 0 C0 3 0 3 0 3 Z M-1 3 C-0.34 4.32 0.32 5.64 1 7 C0.01 7.66 -0.98 8.32 -2 9 C-3.01324326 11.40972598 -3.01324326 11.40972598 -3.6875 14.125 C-3.93886719 15.03507813 -4.19023437 15.94515625 -4.44921875 16.8828125 C-4.63097656 17.58148438 -4.81273437 18.28015625 -5 19 C-4.34 19.33 -3.68 19.66 -3 20 C-3 21.32 -3 22.64 -3 24 C-3.66 24 -4.32 24 -5 24 C-5 24.99 -5 25.98 -5 27 C-5.66 27 -6.32 27 -7 27 C-7 28.32 -7 29.64 -7 31 C-7.66 31 -8.32 31 -9 31 C-9.02686553 29.02090602 -9.04633375 27.04171029 -9.0625 25.0625 C-9.07410156 23.96035156 -9.08570313 22.85820312 -9.09765625 21.72265625 C-9 19 -9 19 -8 18 C-7.896875 16.783125 -7.79375 15.56625 -7.6875 14.3125 C-7.21115381 10.04075026 -5.71725641 7.37598523 -3 4 C-2.34 3.67 -1.68 3.34 -1 3 Z " fill="#C60201" transform="translate(152,202)"/>
<path d="M0 0 C1.65 0.99 3.3 1.98 5 3 C4.85795259 4.58367747 4.71119847 6.16693318 4.5625 7.75 C4.48128906 8.63171875 4.40007812 9.5134375 4.31640625 10.421875 C4.03761535 12.69350452 3.61209423 14.79851823 3 17 C2.01 17 1.02 17 0 17 C-0.33 17.99 -0.66 18.98 -1 20 C-3.47830912 16.28253632 -3.43059445 13.30594453 -3 9 C-2.0625 6.25 -2.0625 6.25 -1 4 C-0.64141484 2.67323492 -0.2981424 1.34164079 0 0 Z " fill="#BD0605" transform="translate(433,279)"/>
<path d="M0 0 C1.66758806 2.43189925 2.17639102 4.27501918 2.5 7.1875 C0.5 5.8125 0.5 5.8125 -1.5 4.1875 C-1.5 3.5275 -1.5 2.8675 -1.5 2.1875 C-3.975 1.6925 -3.975 1.6925 -6.5 1.1875 C-6.5 2.1775 -6.5 3.1675 -6.5 4.1875 C-13.1 4.1875 -19.7 4.1875 -26.5 4.1875 C-26.5 3.5275 -26.5 2.8675 -26.5 2.1875 C-20.56 2.1875 -14.62 2.1875 -8.5 2.1875 C-8.5 1.1975 -8.5 0.2075 -8.5 -0.8125 C-9.49 -0.4825 -10.48 -0.1525 -11.5 0.1875 C-11.5 -0.4725 -11.5 -1.1325 -11.5 -1.8125 C-16.78 -1.8125 -22.06 -1.8125 -27.5 -1.8125 C-27.5 -2.1425 -27.5 -2.4725 -27.5 -2.8125 C-7.76748971 -5.63143004 -7.76748971 -5.63143004 0 0 Z " fill="#AC0D0E" transform="translate(52.5,210.8125)"/>
<path d="M0 0 C1.7081875 2.97076087 2.25188983 5.08148549 2.1875 8.5 C2.18105469 9.2528125 2.17460937 10.005625 2.16796875 10.78125 C2.00303563 12.95990143 1.59600906 14.90204811 1 17 C0.34 17 -0.32 17 -1 17 C-1 16.34 -1 15.68 -1 15 C-1.99 15 -2.98 15 -4 15 C-5.47505306 11.06652516 -5.13353978 6.98430775 -4 3 C-1.9375 1 -1.9375 1 0 0 Z M-8 12 C-7.01 12.33 -6.02 12.66 -5 13 C-5.99 13.99 -6.98 14.98 -8 16 C-8.66 15.67 -9.32 15.34 -10 15 C-9.34 14.01 -8.68 13.02 -8 12 Z " fill="#C60101" transform="translate(267,281)"/>
<path d="M0 0 C0.804375 0.6496875 0.804375 0.6496875 1.625 1.3125 C4.00694059 3.11625488 4.00694059 3.11625488 7 4.375 C10.85616514 6.46375612 13.15841974 8.69999942 14.6875 12.87890625 C15.17973555 14.57096597 15.59638603 16.28464065 16 18 C15.34 18.66 14.68 19.32 14 20 C11.875 19.625 11.875 19.625 10 19 C10 18.01 10 17.02 10 16 C9.0409375 15.566875 9.0409375 15.566875 8.0625 15.125 C6 14 6 14 5 12 C5.99 12 6.98 12 8 12 C8 10.02 8 8.04 8 6 C6.35 6 4.7 6 3 6 C3 5.34 3 4.68 3 4 C2.01 4 1.02 4 0 4 C0 2.68 0 1.36 0 0 Z " fill="#B60809" transform="translate(66,207)"/>
<path d="M0 0 C1.32 0.66 2.64 1.32 4 2 C4 4.64 4 7.28 4 10 C4.66 10 5.32 10 6 10 C6 12.64 6 15.28 6 18 C4.68 18.33 3.36 18.66 2 19 C1.87625 18.195625 1.7525 17.39125 1.625 16.5625 C1.315625 15.2940625 1.315625 15.2940625 1 14 C0.34 13.67 -0.32 13.34 -1 13 C-2.37097852 9.43545584 -2.07243154 5.76644005 -2 2 C-1.34 2 -0.68 2 0 2 C0 1.34 0 0.68 0 0 Z " fill="#C30303" transform="translate(239,212)"/>
<path d="M0 0 C0.33 0 0.66 0 1 0 C1.53160457 2.41474617 2.05054766 4.83108107 2.5625 7.25 C2.71396484 7.93191406 2.86542969 8.61382812 3.02148438 9.31640625 C3.75233495 12.81769038 4.32203546 15.60298173 3 19 C2.34 18.01 1.68 17.02 1 16 C-1.30967334 18.72357379 -1.30967334 18.72357379 -0.625 21.25 C-0.41875 22.1575 -0.2125 23.065 0 24 C0.03824623 26.33301986 0.04574284 28.66711508 0 31 C-0.33 31 -0.66 31 -1 31 C-1.14622803 30.34402832 -1.29245605 29.68805664 -1.44311523 29.01220703 C-2.10521028 26.04919382 -2.77130419 23.08709377 -3.4375 20.125 C-3.66759766 19.09246094 -3.89769531 18.05992187 -4.13476562 16.99609375 C-4.35712891 16.00996094 -4.57949219 15.02382812 -4.80859375 14.0078125 C-5.11494751 12.64100342 -5.11494751 12.64100342 -5.42749023 11.24658203 C-5.9192284 8.98446798 -5.9192284 8.98446798 -7 7 C-5.68 7.33 -4.36 7.66 -3 8 C-3 8.99 -3 9.98 -3 11 C-2.34 10.67 -1.68 10.34 -1 10 C-0.53248212 7.64400765 -0.53248212 7.64400765 -0.375 4.9375 C-0.26285156 3.55884766 -0.26285156 3.55884766 -0.1484375 2.15234375 C-0.09945312 1.44207031 -0.05046875 0.73179687 0 0 Z " fill="#B00B0B" transform="translate(117,207)"/>
<path d="M0 0 C2.3125 0.125 2.3125 0.125 5 1 C8.72753174 6.05879307 8.687007 11.93441149 9 18 C8.01 17.67 7.02 17.34 6 17 C6.33 14.69 6.66 12.38 7 10 C6.01 9.67 5.02 9.34 4 9 C2.97980427 8.0206121 1.97850195 7.02104551 1 6 C0.34 5.67 -0.32 5.34 -1 5 C-1 8.63 -1 12.26 -1 16 C-1.66 16 -2.32 16 -3 16 C-2.88590318 13.89521396 -2.75834639 11.79115423 -2.625 9.6875 C-2.55539063 8.51574219 -2.48578125 7.34398437 -2.4140625 6.13671875 C-2 3 -2 3 0 0 Z " fill="#B00B0B" transform="translate(108,187)"/>
<path d="M0 0 C0.33 0 0.66 0 1 0 C1 4.62 1 9.24 1 14 C1.66 14 2.32 14 3 14 C3 15.65 3 17.3 3 19 C1.68 19 0.36 19 -1 19 C-0.67 21.31 -0.34 23.62 0 26 C-0.66 26 -1.32 26 -2 26 C-3.7482484 22.5035032 -3.22708836 18.53951945 -3.25 14.6875 C-3.270625 13.83220703 -3.29125 12.97691406 -3.3125 12.09570312 C-3.3425194 7.25132271 -3.20083175 3.9202106 0 0 Z " fill="#C70202" transform="translate(182,248)"/>
<path d="M0 0 C0 2.31 0 4.62 0 7 C0.66 7.33 1.32 7.66 2 8 C2 10.31 2 12.62 2 15 C2.66 15 3.32 15 4 15 C4 16.98 4 18.96 4 21 C1.83125748 20.49396008 0.00032373 20.00016187 -2 19 C-2 15.7 -2 12.4 -2 9 C-2.66 9 -3.32 9 -4 9 C-4.368 3.48 -4.368 3.48 -2.5625 1.125 C-1 0 -1 0 0 0 Z " fill="#C60101" transform="translate(247,231)"/>
<path d="M0 0 C0.33 0 0.66 0 1 0 C1.66 5.28 2.32 10.56 3 16 C1.35 15.67 -0.3 15.34 -2 15 C-2 14.01 -2 13.02 -2 12 C-2.66 12 -3.32 12 -4 12 C-4 18.6 -4 25.2 -4 32 C-4.33 32 -4.66 32 -5 32 C-5.33 22.1 -5.66 12.2 -6 2 C-5.01 2.495 -5.01 2.495 -4 3 C-4 4.98 -4 6.96 -4 9 C-1.47740939 7.02579865 -1.0070192 6.03254358 -0.3125 2.8125 C-0.1578125 1.4203125 -0.1578125 1.4203125 0 0 Z " fill="#B10D0E" transform="translate(75,252)"/>
<path d="M0 0 C0.99 0.33 1.98 0.66 3 1 C3 1.99 3 2.98 3 4 C3.66 4 4.32 4 5 4 C5.08078641 6.12438339 5.13909141 8.2496323 5.1875 10.375 C5.22230469 11.55835938 5.25710937 12.74171875 5.29296875 13.9609375 C5.19628906 14.96382812 5.09960938 15.96671875 5 17 C4.01 17.66 3.02 18.32 2 19 C0.5216774 16.04335481 0.93967217 13.25770263 1 10 C0.34 10 -0.32 10 -1 10 C-1.125 2.25 -1.125 2.25 0 0 Z " fill="#C50202" transform="translate(156,217)"/>
<path d="M0 0 C4.62 0 9.24 0 14 0 C14 1.65 14 3.3 14 5 C10.85069107 6.04976964 8.61185544 6.10131595 5.3125 6.0625 C4.31863281 6.05347656 3.32476562 6.04445313 2.30078125 6.03515625 C1.16189453 6.01775391 1.16189453 6.01775391 0 6 C0 4.02 0 2.04 0 0 Z " fill="#C60101" transform="translate(318,259)"/>
<path d="M0 0 C1.5778125 0.495 1.5778125 0.495 3.1875 1 C12.1291878 3.21956789 21.20219227 2.38584616 30 0 C26.57896254 3.62987986 23.48166846 4.8140646 18.4453125 5.19140625 C12.60409723 5.31276114 7.58711129 4.68667511 2 3 C2.66 4.65 3.32 6.3 4 8 C-0.83256305 7.58578031 -2.82679218 5.53586014 -6 2 C-4.02 2.99 -4.02 2.99 -2 4 C-1.34 2.68 -0.68 1.36 0 0 Z " fill="#AA0D10" transform="translate(21,234)"/>
<path d="M0 0 C0.33 0 0.66 0 1 0 C1.33923576 2.35344806 1.67150534 4.7075484 2 7.0625 C2.09539062 7.71927734 2.19078125 8.37605469 2.2890625 9.05273438 C2.88887674 13.40138763 3.09127093 17.61329071 3 22 C5.06280773 21.44986966 5.06280773 21.44986966 7 20 C7.70535611 17.1213065 7.70535611 17.1213065 7.75 13.875 C7.80671875 12.77929688 7.8634375 11.68359375 7.921875 10.5546875 C7.94765625 9.71164063 7.9734375 8.86859375 8 8 C8.33 8 8.66 8 9 8 C9.33 13.28 9.66 18.56 10 24 C8.35 24.66 6.7 25.32 5 26 C4.10169161 29.05272465 4.10169161 29.05272465 4 32 C3.67 32 3.34 32 3 32 C2.49306328 27.98000981 1.9956961 23.95889046 1.5 19.9375 C1.35691406 18.80376953 1.21382813 17.67003906 1.06640625 16.50195312 C0.38808682 10.96234446 -0.19443782 5.58198572 0 0 Z " fill="#A9100F" transform="translate(391,246)"/>
<path d="M0 0 C2.28062828 3.42094242 2.21925007 4.68187222 2.125 8.6875 C2.10695313 9.68136719 2.08890625 10.67523438 2.0703125 11.69921875 C2.03550781 12.83810547 2.03550781 12.83810547 2 14 C2.99 13.67 3.98 13.34 5 13 C6.22520264 9.99152582 6.22520264 9.99152582 7 7 C7.33 7 7.66 7 8 7 C8.58040933 10.00929622 9.0493481 12.92945128 9 16 C7.1875 17.8125 7.1875 17.8125 5 19 C3.85549571 21.02295158 3.85549571 21.02295158 3 23 C0.05602712 15.2370239 -0.34937193 8.25552919 0 0 Z " fill="#AE0D0D" transform="translate(449,279)"/>
<path d="M0 0 C1.33333333 0.66666667 2.66666667 1.33333333 4 2 C4.21442091 7.46773319 4.07190818 11.49644428 0.5 15.8125 C-1 17 -1 17 -3 17 C-4.26264601 12.70700357 -3.62950412 10.12168689 -2 6 C-1.34 6 -0.68 6 0 6 C0 4.02 0 2.04 0 0 Z " fill="#BF0505" transform="translate(9,214)"/>
<path d="M0 0 C1.98 0.99 1.98 0.99 4 2 C4 2.66 4 3.32 4 4 C5.32 4.66 6.64 5.32 8 6 C8 9.63 8 13.26 8 17 C6.68 17.33 5.36 17.66 4 18 C4 15.69 4 13.38 4 11 C4.66 11 5.32 11 6 11 C5.34 10.34 4.68 9.68 4 9 C3.01 9.495 3.01 9.495 2 10 C2 7.69 2 5.38 2 3 C1.34 3 0.68 3 0 3 C0 2.01 0 1.02 0 0 Z " fill="#C70102" transform="translate(251,274)"/>
<path d="M0 0 C0.33 0 0.66 0 1 0 C1.25523437 1.39412109 1.25523437 1.39412109 1.515625 2.81640625 C2.84648498 9.60520798 4.04801759 15.27643927 8 21 C9.62490954 21.02698189 11.24994633 21.04638757 12.875 21.0625 C13.77992188 21.07410156 14.68484375 21.08570313 15.6171875 21.09765625 C18.0168585 21.16249257 18.0168585 21.16249257 20 20 C19.67 20.99 19.34 21.98 19 23 C17.06318839 23.08107583 15.1254066 23.13922475 13.1875 23.1875 C12.10855469 23.22230469 11.02960938 23.25710938 9.91796875 23.29296875 C6.64076507 22.96393224 6.05485554 22.41445526 4 20 C1.83700789 20.22757731 1.83700789 20.22757731 0 21 C-0.33 19.68 -0.66 18.36 -1 17 C-0.01 17 0.98 17 2 17 C1.67 16.05125 1.34 15.1025 1 14.125 C-0.3644458 9.44552744 -0.17499341 4.83176241 0 0 Z " fill="#AE0A0C" transform="translate(285,282)"/>
<path d="M0 0 C0.33 0 0.66 0 1 0 C1.33 4.95 1.66 9.9 2 15 C1.01 15 0.02 15 -1 15 C-1 19.95 -1 24.9 -1 30 C-1.66 30 -2.32 30 -3 30 C-2.67 32.97 -2.34 35.94 -2 39 C-3.485 39.495 -3.485 39.495 -5 40 C-3.59676431 26.62798935 -1.87097293 13.31427828 0 0 Z " fill="#AA1010" transform="translate(138,247)"/>
<path d="M0 0 C2.3125 -0.3125 2.3125 -0.3125 5 0 C7.63560713 3.27178817 8 4.72068147 8 9 C8.66 9.33 9.32 9.66 10 10 C10 10.99 10 11.98 10 13 C8.35 12.67 6.7 12.34 5 12 C4.9175 11.21625 4.835 10.4325 4.75 9.625 C4.27193661 6.85250896 4.27193661 6.85250896 1.9375 5.6875 C1.298125 5.460625 0.65875 5.23375 0 5 C0 3.35 0 1.7 0 0 Z " fill="#C60202" transform="translate(201,193)"/>
<path d="M0 0 C0.054348 2.0622048 0.09294961 4.12482816 0.125 6.1875 C0.14820312 7.33605469 0.17140625 8.48460937 0.1953125 9.66796875 C0.00313312 12.94654899 -0.48592856 15.10420602 -2 18 C-2.66 18.33 -3.32 18.66 -4 19 C-4 13.06 -4 7.12 -4 1 C-1 0 -1 0 0 0 Z " fill="#C60201" transform="translate(73,235)"/>
<path d="M0 0 C2.62386487 3.06117568 3 3.73173127 3 8 C2.34 8 1.68 8 1 8 C1 15.59 1 23.18 1 31 C0.34 31.33 -0.32 31.66 -1 32 C-1.02949232 28.54168516 -1.0469616 25.08340346 -1.0625 21.625 C-1.07087891 20.65949219 -1.07925781 19.69398438 -1.08789062 18.69921875 C-1.10902305 12.40175711 -0.76107198 6.25160137 0 0 Z " fill="#AB0F0D" transform="translate(178,213)"/>
<path d="M0 0 C2.31 0 4.62 0 7 0 C8.1577506 3.47325181 8.06866652 6.36067448 8 10 C6.68 10 5.36 10 4 10 C3.71125 9.195625 3.4225 8.39125 3.125 7.5625 C2.26737432 4.8673532 2.26737432 4.8673532 0 4 C0 2.68 0 1.36 0 0 Z " fill="#BC0604" transform="translate(247,260)"/>
<path d="M0 0 C0.66 0.33 1.32 0.66 2 1 C2 3.64 2 6.28 2 9 C2.66 9 3.32 9 4 9 C3.67 11.31 3.34 13.62 3 16 C0.5 15.125 0.5 15.125 -2 13 C-2.85304739 8.080484 -2.78950538 4.18425806 0 0 Z " fill="#C30303" transform="translate(17,223)"/>
<path d="M0 0 C0.66 0 1.32 0 2 0 C1.67 3.63 1.34 7.26 1 11 C0.67 11 0.34 11 0 11 C-0.19406478 9.35492782 -0.38007935 7.70890406 -0.5625 6.0625 C-0.66691406 5.14597656 -0.77132813 4.22945312 -0.87890625 3.28515625 C-0.91886719 2.53105469 -0.95882813 1.77695313 -1 1 C-0.67 0.67 -0.34 0.34 0 0 Z M-7 1 C-5.02 1.66 -3.04 2.32 -1 3 C-1.66 4.32 -2.32 5.64 -3 7 C-3.66 6.67 -4.32 6.34 -5 6 C-5.04898437 6.77085937 -5.09796875 7.54171875 -5.1484375 8.3359375 C-5.22320312 9.33882812 -5.29796875 10.34171875 -5.375 11.375 C-5.47941406 12.87160156 -5.47941406 12.87160156 -5.5859375 14.3984375 C-6 17 -6 17 -8 19 C-8.09945415 12.88909517 -8.0712828 7.02596573 -7 1 Z " fill="#AD0D0C" transform="translate(285,216)"/>
<path d="M0 0 C0.474375 0.639375 0.94875 1.27875 1.4375 1.9375 C2.83738726 3.88293306 2.83738726 3.88293306 4 5 C4.99 4.01 5.98 3.02 7 2 C6.01 5.3 5.02 8.6 4 12 C3.67 11.01 3.34 10.02 3 9 C2.01 9.33 1.02 9.66 0 10 C-0.33 9.01 -0.66 8.02 -1 7 C-1 8.98 -1 10.96 -1 13 C-1.66 13 -2.32 13 -3 13 C-3.33 14.98 -3.66 16.96 -4 19 C-5.79341438 14.83326479 -4.01173384 11.25336659 -2.5625 7.25 C-2.19801758 6.20392578 -2.19801758 6.20392578 -1.82617188 5.13671875 C-1.22689752 3.42114902 -0.61470115 1.71010285 0 0 Z " fill="#AD0D0C" transform="translate(10,207)"/>
<path d="M0 0 C0.66 0.33 1.32 0.66 2 1 C2.02693575 3.12493141 2.04636628 5.24995912 2.0625 7.375 C2.07410156 8.55835938 2.08570313 9.74171875 2.09765625 10.9609375 C2 14 2 14 1 16 C0.01 15.67 -0.98 15.34 -2 15 C-2 10.38 -2 5.76 -2 1 C-1.34 0.67 -0.68 0.34 0 0 Z " fill="#C80101" transform="translate(139,266)"/>
<path d="M0 0 C0.99 0.495 0.99 0.495 2 1 C2 3.64 2 6.28 2 9 C3.65 8.67 5.3 8.34 7 8 C7 8.66 7 9.32 7 10 C6.34 10 5.68 10 5 10 C5 10.66 5 11.32 5 12 C5.66 12.33 6.32 12.66 7 13 C6.67 13.66 6.34 14.32 6 15 C6.66 15 7.32 15 8 15 C8 14.34 8 13.68 8 13 C8.66 13 9.32 13 10 13 C9.67 14.32 9.34 15.64 9 17 C7.02 16.67 5.04 16.34 3 16 C-0.44419134 5.62642369 -0.44419134 5.62642369 0 0 Z " fill="#B60A0A" transform="translate(127,298)"/>
<path d="M0 0 C0.66 0.33 1.32 0.66 2 1 C1.50757812 2.11503906 1.01515625 3.23007812 0.5078125 4.37890625 C-1.33497508 9.29120193 -1.30927315 13.74981011 -1.125 18.9375 C-1.04811412 21.96092431 -1.00594894 24.97496548 -1 28 C-2 29 -2 29 -5.59765625 29.09765625 C-7.08596867 29.0909822 -8.57426432 29.07902183 -10.0625 29.0625 C-10.82111328 29.05798828 -11.57972656 29.05347656 -12.36132812 29.04882812 C-14.24091871 29.0370068 -16.12046899 29.01907078 -18 29 C-18 28.67 -18 28.34 -18 28 C-13.05 28 -8.1 28 -3 28 C-3.03480469 26.48148437 -3.06960937 24.96296875 -3.10546875 23.3984375 C-3.1336155 21.3906361 -3.16091471 19.38282269 -3.1875 17.375 C-3.21263672 16.37597656 -3.23777344 15.37695312 -3.26367188 14.34765625 C-3.31985439 8.69194968 -3.11368953 4.78903429 0 0 Z " fill="#AB0F0F" transform="translate(25,278)"/>
<path d="M0 0 C1.65 0 3.3 0 5 0 C5 4.62 5 9.24 5 14 C4.67 14 4.34 14 4 14 C3.67 12.35 3.34 10.7 3 9 C2.01 9.66 1.02 10.32 0 11 C-0.19406478 9.35492782 -0.38007935 7.70890406 -0.5625 6.0625 C-0.66691406 5.14597656 -0.77132813 4.22945313 -0.87890625 3.28515625 C-0.91886719 2.53105469 -0.95882813 1.77695312 -1 1 C-0.67 0.67 -0.34 0.34 0 0 Z " fill="#C80303" transform="translate(495,274)"/>
<path d="M0 0 C2.3125 -0.3125 2.3125 -0.3125 5 0 C6.75 2.4375 6.75 2.4375 8 5 C8.33 5.33 8.66 5.66 9 6 C9.04080783 7.99958364 9.04254356 10.00045254 9 12 C8.01 12.495 8.01 12.495 7 13 C6.34 12.67 5.68 12.34 5 12 C5 10.02 5 8.04 5 6 C4.34 6 3.68 6 3 6 C1.375 4.6875 1.375 4.6875 0 3 C0 2.01 0 1.02 0 0 Z " fill="#C60202" transform="translate(46,212)"/>
<path d="M0 0 C0.66 0.33 1.32 0.66 2 1 C2.04254356 2.99954746 2.04080783 5.00041636 2 7 C-0.58955157 9.58955157 -7.95177603 8.18558792 -11.4375 8.1875 C-12.60861328 8.19974609 -13.77972656 8.21199219 -14.98632812 8.22460938 C-16.10330078 8.22654297 -17.22027344 8.22847656 -18.37109375 8.23046875 C-19.40161865 8.23457764 -20.43214355 8.23868652 -21.49389648 8.24291992 C-24 8 -24 8 -26 6 C-26 5.01 -26 4.02 -26 3 C-23.525 3.99 -23.525 3.99 -21 5 C-21 5.66 -21 6.32 -21 7 C-14.07 7 -7.14 7 0 7 C0 4.69 0 2.38 0 0 Z " fill="#A61012" transform="translate(27,306)"/>
<path d="M0 0 C0.66 0 1.32 0 2 0 C2 0.99 2 1.98 2 3 C2.99 3.33 3.98 3.66 5 4 C4.67 6.64 4.34 9.28 4 12 C5.98 12 7.96 12 10 12 C10.33 10.68 10.66 9.36 11 8 C11 9.65 11 11.3 11 13 C8.69 13.33 6.38 13.66 4 14 C1.24297811 9.20517932 0.46671627 5.41390868 0 0 Z M3 1 C3.99 1.33 4.98 1.66 6 2 C5.01 2 4.02 2 3 2 C3 1.67 3 1.34 3 1 Z " fill="#AC0D0D" transform="translate(257,301)"/>
<path d="M0 0 C0.28875 0.598125 0.5775 1.19625 0.875 1.8125 C2.04742026 4.19327792 2.04742026 4.19327792 4 7 C3.625 9.1875 3.625 9.1875 3 11 C0.625 10.6875 0.625 10.6875 -2 10 C-4.1519437 6.77208445 -4.20086443 5.71599191 -4 2 C-2.68 1.34 -1.36 0.68 0 0 Z " fill="#C40202" transform="translate(457,295)"/>
<path d="M0 0 C1.485 0.99 1.485 0.99 3 2 C2.67 3.32 2.34 4.64 2 6 C3.65 5.67 5.3 5.34 7 5 C6.690625 5.53625 6.38125 6.0725 6.0625 6.625 C4.82172561 9.3984957 4.4090325 12.00042837 4 15 C4.66 15 5.32 15 6 15 C6 18.3 6 21.6 6 25 C4.53408909 22.06817819 3.65222408 20.09332296 2.9296875 17.03125 C2.75566406 16.29519531 2.58164063 15.55914062 2.40234375 14.80078125 C2.22832031 14.04152344 2.05429688 13.28226563 1.875 12.5 C1.69324219 11.74074219 1.51148438 10.98148438 1.32421875 10.19921875 C0.49012744 6.61827036 0 3.72626421 0 0 Z " fill="#B20B0A" transform="translate(239,225)"/>
<path d="M0 0 C2.26026647 2.40750669 2.97414174 3.68564065 3.2487793 7.02441406 C3.19117432 8.17651367 3.13356934 9.32861328 3.07421875 10.515625 C3.01943359 11.76601563 2.96464844 13.01640625 2.90820312 14.3046875 C2.83537109 15.60664063 2.76253906 16.90859375 2.6875 18.25 C2.62626953 19.56742187 2.56503906 20.88484375 2.50195312 22.2421875 C2.34870587 25.4957446 2.18084932 28.74787942 2 32 C1.67 32 1.34 32 1 32 C0.11929203 24.76568401 -0.12570502 17.6581629 -0.0625 10.375 C-0.05798828 9.37082031 -0.05347656 8.36664063 -0.04882812 7.33203125 C-0.03718967 4.88795529 -0.0208424 2.4440118 0 0 Z " fill="#AB100E" transform="translate(177,246)"/>
<path d="M0 0 C0.99 0 1.98 0 3 0 C3 0.66 3 1.32 3 2 C4.66611905 2.042721 6.33382885 2.04063832 8 2 C8.33 1.67 8.66 1.34 9 1 C10.66617115 0.95936168 12.33388095 0.957279 14 1 C14 1.66 14 2.32 14 3 C13.34 3 12.68 3 12 3 C12 3.66 12 4.32 12 5 C6.97874074 5.77916092 3.02296004 6.13016601 -2 5 C-1.34 3.35 -0.68 1.7 0 0 Z " fill="#C50202" transform="translate(30,188)"/>
<path d="M0 0 C1.32 0.33 2.64 0.66 4 1 C3.67 2.98 3.34 4.96 3 7 C1.02 7.66 -0.96 8.32 -3 9 C-3 9.99 -3 10.98 -3 12 C-3.99 12.33 -4.98 12.66 -6 13 C-6.25 10.75 -6.25 10.75 -6 8 C-4.125 5.6875 -4.125 5.6875 -2 4 C-1.34 4 -0.68 4 0 4 C0 2.68 0 1.36 0 0 Z " fill="#C40204" transform="translate(23,189)"/>
<path d="M0 0 C1.485 0.99 1.485 0.99 3 2 C3.99 2.33 4.98 2.66 6 3 C5.67 4.32 5.34 5.64 5 7 C4.34 7 3.68 7 3 7 C3.33 8.32 3.66 9.64 4 11 C3.34 11 2.68 11 2 11 C2 13.31 2 15.62 2 18 C1.67 18 1.34 18 1 18 C-0.0712828 11.97403427 -0.09945415 6.11090483 0 0 Z " fill="#B30A09" transform="translate(277,272)"/>
<path d="M0 0 C2.64 0 5.28 0 8 0 C7.67 1.32 7.34 2.64 7 4 C6.34 4 5.68 4 5 4 C5 4.66 5 5.32 5 6 C2.36 6 -0.28 6 -3 6 C-2.01 4.02 -1.02 2.04 0 0 Z " fill="#C70101" transform="translate(468,307)"/>
<path d="M0 0 C1.32 0.33 2.64 0.66 4 1 C4 1.99 4 2.98 4 4 C4.99 4.66 5.98 5.32 7 6 C6.67 6.66 6.34 7.32 6 8 C4.125 7.375 4.125 7.375 2 6 C0.75 2.875 0.75 2.875 0 0 Z M16 -2 C16 -1.01 16 -0.02 16 1 C15.34 1.66 14.68 2.32 14 3 C12.68 3 11.36 3 10 3 C9.67 3.66 9.34 4.32 9 5 C8.34 5 7.68 5 7 5 C6.67 4.01 6.34 3.02 6 2 C6.66 2 7.32 2 8 2 C8 1.34 8 0.68 8 0 C8.94875 0.04125 9.8975 0.0825 10.875 0.125 C14.10244856 0.34973818 14.10244856 0.34973818 16 -2 Z " fill="#B20A0B" transform="translate(185,304)"/>
<path d="M0 0 C1.98 0.495 1.98 0.495 4 1 C5.125 8.75 5.125 8.75 4 11 C3.01 11 2.02 11 1 11 C-1.42857143 3.57142857 -1.42857143 3.57142857 0 0 Z " fill="#C50202" transform="translate(116,222)"/>
<path d="M0 0 C5.55548012 2.45094711 7.95659662 7.01132848 11 12 C10.67 12.66 10.34 13.32 10 14 C9.34 13.67 8.68 13.34 8 13 C7.87625 12.38125 7.7525 11.7625 7.625 11.125 C6.79894241 8.3164042 5.32910724 7.67404583 3 6 C2.67 5.01 2.34 4.02 2 3 C1.34 2.67 0.68 2.34 0 2 C0 1.34 0 0.68 0 0 Z M-2 7 C0.375 7.625 0.375 7.625 3 9 C4.3125 12.125 4.3125 12.125 5 15 C2.35247996 12.42215154 0.05567935 10.08351902 -2 7 Z " fill="#A9100F" transform="translate(55,193)"/>
<path d="M0 0 C1.32 0.33 2.64 0.66 4 1 C4 3.31 4 5.62 4 8 C3.67 8 3.34 8 3 8 C2.67 11.63 2.34 15.26 2 19 C1.67 19 1.34 19 1 19 C0.15976812 14.64667264 -0.10770995 10.55557481 -0.0625 6.125 C-0.05347656 4.97257813 -0.04445313 3.82015625 -0.03515625 2.6328125 C-0.02355469 1.76398438 -0.01195313 0.89515625 0 0 Z " fill="#B70807" transform="translate(79,230)"/>
<path d="M0 0 C0 2 0 4 0 6 C-1.98 6 -3.96 6 -6 6 C-6.33 4.02 -6.66 2.04 -7 0 C-3.86650268 -1.04449911 -3.01031744 -0.93423645 0 0 Z " fill="#C40303" transform="translate(464,238)"/>
<path d="M0 0 C4.89842001 0.44531091 8.50506602 2.64561297 12 6 C13.0625 8.625 13.0625 8.625 13 11 C12.01 12.485 12.01 12.485 11 14 C9.35 13.67 7.7 13.34 6 13 C6.66 12.67 7.32 12.34 8 12 C8.66 12.33 9.32 12.66 10 13 C10 10.69 10 8.38 10 6 C8.68 6 7.36 6 6 6 C6 5.01 6 4.02 6 3 C3.03 2.505 3.03 2.505 0 2 C0 1.34 0 0.68 0 0 Z " fill="#A51012" transform="translate(481,187)"/>
<path d="M0 0 C0.33 0 0.66 0 1 0 C1.33 4.29 1.66 8.58 2 13 C1.34 13 0.68 13 0 13 C-0.33 13.99 -0.66 14.98 -1 16 C-1.99 16.33 -2.98 16.66 -4 17 C-2.68 11.39 -1.36 5.78 0 0 Z " fill="#AC0A0C" transform="translate(206,285)"/>
<path d="M0 0 C1.32 0 2.64 0 4 0 C4.144375 0.61875 4.28875 1.2375 4.4375 1.875 C5.35940679 5.35775899 5.84843875 5.89895917 9 8 C5.06225823 8.36630156 3.43460229 8.30233203 0.125 6 C-0.57625 5.34 -1.2775 4.68 -2 4 C-1 1 -1 1 0 0 Z " fill="#C80203" transform="translate(479,250)"/>
<path d="M0 0 C0.99 0.33 1.98 0.66 3 1 C3 1.66 3 2.32 3 3 C3.66 3 4.32 3 5 3 C5 4.98 5 6.96 5 9 C5.66 9 6.32 9 7 9 C7.1953125 15.0546875 7.1953125 15.0546875 7 17 C6.34 17.66 5.68 18.32 5 19 C4.80664062 17.96359375 4.61328125 16.9271875 4.4140625 15.859375 C4.15135133 14.48952391 3.88831329 13.11973548 3.625 11.75 C3.43550781 10.72712891 3.43550781 10.72712891 3.2421875 9.68359375 C2.56093633 6.17515024 1.83146585 3.08960327 0 0 Z " fill="#A80F10" transform="translate(46,215)"/>
<path d="M0 0 C1.98 0.99 3.96 1.98 6 3 C5.67 7.29 5.34 11.58 5 16 C3.22714569 12.45429137 2.28770187 9.56675327 1.375 5.75 C0.98441406 4.13351563 0.98441406 4.13351563 0.5859375 2.484375 C0.39257812 1.66453125 0.19921875 0.8446875 0 0 Z " fill="#AC0C0D" transform="translate(60,209)"/>
<path d="M0 0 C0.33 0.99 0.66 1.98 1 3 C-1.67999848 7.55007112 -5.13317833 13.13525379 -10.3828125 14.71875 C-12.5625 14.6875 -12.5625 14.6875 -16 14 C-15.46375 13.7525 -14.9275 13.505 -14.375 13.25 C-8.23812464 10.0200656 -3.1634968 6.3269936 0 0 Z " fill="#9F0F13" transform="translate(490,292)"/>
<path d="M0 0 C1.5 1.125 1.5 1.125 3 3 C3.1875 6.1875 3.1875 6.1875 3 9 C2.34 9 1.68 9 1 9 C0.67 9.66 0.34 10.32 0 11 C-2 9 -2 9 -2.125 5.875 C-2.08375 4.92625 -2.0425 3.9775 -2 3 C-1.34 3 -0.68 3 0 3 C0 2.01 0 1.02 0 0 Z " fill="#C30201" transform="translate(99,253)"/>
<path d="M0 0 C0.66 0.33 1.32 0.66 2 1 C0.7260411 3.03833424 -0.61061923 5.03852126 -2 7 C-2.66 7 -3.32 7 -4 7 C-4.18175781 7.62648437 -4.36351562 8.25296875 -4.55078125 8.8984375 C-4.80214844 9.71570313 -5.05351562 10.53296875 -5.3125 11.375 C-5.55613281 12.18710938 -5.79976563 12.99921875 -6.05078125 13.8359375 C-7 16 -7 16 -10 18 C-8.70788526 10.73185458 -4.45810218 5.73332676 0 0 Z " fill="#A60F12" transform="translate(462,188)"/>
<path d="M0 0 C1.65 0 3.3 0 5 0 C3.4722133 3.43752007 1.49818944 6.18953688 -1 9 C-1.66 9 -2.32 9 -3 9 C-2.44271087 5.65626525 -1.64826111 2.96687001 0 0 Z " fill="#B30B0B" transform="translate(490,300)"/>
<path d="M0 0 C0.99 0.33 1.98 0.66 3 1 C3 1.66 3 2.32 3 3 C3.66 3 4.32 3 5 3 C5 3.66 5 4.32 5 5 C3.25 6.6875 3.25 6.6875 1 8 C-1.25 7.6875 -1.25 7.6875 -3 7 C-2.34 6.67 -1.68 6.34 -1 6 C-1.0309375 4.7934375 -1.0309375 4.7934375 -1.0625 3.5625 C-1 1 -1 1 0 0 Z " fill="#C90102" transform="translate(282,211)"/>
<path d="M0 0 C2.31 0 4.62 0 7 0 C7 0.66 7 1.32 7 2 C11.29 2.33 15.58 2.66 20 3 C20 3.33 20 3.66 20 4 C12.75033203 5.10610743 7.63937223 5.31968611 1 2 C0.67 1.34 0.34 0.68 0 0 Z " fill="#A50E0F" transform="translate(459,310)"/>
<path d="M0 0 C2.29633824 3.44450737 2.54016485 5.93812283 3 10 C1.68 10.33 0.36 10.66 -1 11 C-1.0270043 9.54176788 -1.04639787 8.08339325 -1.0625 6.625 C-1.07410156 5.81289063 -1.08570313 5.00078125 -1.09765625 4.1640625 C-1 2 -1 2 0 0 Z " fill="#C60202" transform="translate(452,282)"/>
<path d="M0 0 C3.80984844 2.77079887 4.06840752 6.62868145 5 11 C4.01 11 3.02 11 2 11 C2 9.02 2 7.04 2 5 C0.35 5 -1.3 5 -3 5 C-2.67 4.34 -2.34 3.68 -2 3 C-1.34 3.33 -0.68 3.66 0 4 C0 2.68 0 1.36 0 0 Z M-6 5 C-5.01 5.33 -4.02 5.66 -3 6 C-3.66 6.66 -4.32 7.32 -5 8 C-5.33 7.01 -5.66 6.02 -6 5 Z " fill="#AC0C0E" transform="translate(495,263)"/>
<path d="M0 0 C1.984375 1.08203125 1.984375 1.08203125 4 3 C4.390625 6.13671875 4.390625 6.13671875 4.25 9.6875 C4.21390625 10.86699219 4.1778125 12.04648438 4.140625 13.26171875 C4.09421875 14.16535156 4.0478125 15.06898438 4 16 C3.67 16 3.34 16 3 16 C2.95101563 15.30132812 2.90203125 14.60265625 2.8515625 13.8828125 C2.77679688 12.97273437 2.70203125 12.06265625 2.625 11.125 C2.52058594 9.76761719 2.52058594 9.76761719 2.4140625 8.3828125 C2.20431868 5.82058097 2.20431868 5.82058097 0 4 C-0.99 4.33 -1.98 4.66 -3 5 C-2.625 3.0625 -2.625 3.0625 -2 1 C-1.34 0.67 -0.68 0.34 0 0 Z " fill="#A91013" transform="translate(266,185)"/>
<path d="M0 0 C0.33 0 0.66 0 1 0 C1.33 3.63 1.66 7.26 2 11 C0.68 11.33 -0.64 11.66 -2 12 C-2 13.65 -2 15.3 -2 17 C-2.33 17 -2.66 17 -3 17 C-3.33 14.69 -3.66 12.38 -4 10 C-3.01 9.67 -2.02 9.34 -1 9 C-0.67 6.03 -0.34 3.06 0 0 Z " fill="#B10B0A" transform="translate(71,224)"/>
<path d="M0 0 C0.33 0 0.66 0 1 0 C1.22127098 2.29045368 1.4266504 4.58244764 1.625 6.875 C1.74101562 8.15117187 1.85703125 9.42734375 1.9765625 10.7421875 C1.98429687 11.81726563 1.99203125 12.89234375 2 14 C1.34 14.66 0.68 15.32 0 16 C-0.69748583 17.31747324 -1.36959957 18.64914193 -2 20 C-1.47594437 13.30992818 -0.89536075 6.6512513 0 0 Z " fill="#A9100F" transform="translate(432,268)"/>
<path d="M0 0 C1.32 0 2.64 0 4 0 C4 1.98 4 3.96 4 6 C2.68 6 1.36 6 0 6 C0 5.34 0 4.68 0 4 C-0.66 4 -1.32 4 -2 4 C-1.34 2.68 -0.68 1.36 0 0 Z " fill="#C80202" transform="translate(307,189)"/>
<path d="M0 0 C0.33 0 0.66 0 1 0 C1.36463732 1.74784829 1.7163078 3.49840502 2.0625 5.25 C2.25972656 6.22453125 2.45695313 7.1990625 2.66015625 8.203125 C2.98397535 10.868119 2.85503199 12.48871723 2 15 C1.67 12.69 1.34 10.38 1 8 C0.01 8.33 -0.98 8.66 -2 9 C-2.33 8.01 -2.66 7.02 -3 6 C-2.67 5.34 -2.34 4.68 -2 4 C-1.34 4 -0.68 4 0 4 C0 2.68 0 1.36 0 0 Z " fill="#AD0B0C" transform="translate(186,278)"/>
<path d="M0 0 C0.33 1.32 0.66 2.64 1 4 C0.38125 4.061875 -0.2375 4.12375 -0.875 4.1875 C-3.23446438 4.81210579 -3.23446438 4.81210579 -4.125 7.3125 C-4.41375 8.199375 -4.7025 9.08625 -5 10 C-5.65213539 11.34050052 -6.31379969 12.67661368 -7 14 C-7.66 14 -8.32 14 -9 14 C-7.34966761 8.71893635 -3.90667286 3.90667286 0 0 Z " fill="#A40F0F" transform="translate(22,189)"/>
<path d="M0 0 C2 3 2 3 2 7 C3.32 6.67 4.64 6.34 6 6 C6.33 6.66 6.66 7.32 7 8 C6.67 8.66 6.34 9.32 6 10 C5.34 10 4.68 10 4 10 C3.67 10.99 3.34 11.98 3 13 C2.49242138 11.58603098 1.99425075 10.16868271 1.5 8.75 C1.08234375 7.56664062 1.08234375 7.56664062 0.65625 6.359375 C0 4 0 4 0 0 Z " fill="#AE0E0A" transform="translate(181,291)"/>
<path d="M0 0 C0.598125 0.309375 1.19625 0.61875 1.8125 0.9375 C4.08956772 2.10209704 4.08956772 2.10209704 7 3 C6.67 3.66 6.34 4.32 6 5 C5.34 5 4.68 5 4 5 C4 5.66 4 6.32 4 7 C3.01 7 2.02 7 1 7 C0.67 4.69 0.34 2.38 0 0 Z " fill="#C80202" transform="translate(404,302)"/>
<path d="M0 0 C0.33 0 0.66 0 1 0 C1.22126178 2.45779976 1.42750395 4.91527648 1.625 7.375 C1.68945312 8.07367188 1.75390625 8.77234375 1.8203125 9.4921875 C1.96119739 11.32369111 1.98761659 13.16312748 2 15 C1.34 15.66 0.68 16.32 0 17 C-0.99 16.67 -1.98 16.34 -3 16 C-2.34 15.01 -1.68 14.02 -1 13 C-0.5396236 9.80193335 -0.5396236 9.80193335 -0.375 6.3125 C-0.30023438 5.13300781 -0.22546875 3.95351562 -0.1484375 2.73828125 C-0.09945312 1.83464844 -0.05046875 0.93101562 0 0 Z " fill="#A31312" transform="translate(81,250)"/>
<path d="M0 0 C1.33333333 0.66666667 2.66666667 1.33333333 4 2 C4 2.99 4 3.98 4 5 C1.03 4.67 -1.94 4.34 -5 4 C-5 3.34 -5 2.68 -5 2 C-3.35 2 -1.7 2 0 2 C0 1.34 0 0.68 0 0 Z " fill="#CB0104" transform="translate(419,308)"/>
<path d="M0 0 C0.33 0 0.66 0 1 0 C1.22281874 1.91503674 1.42771076 3.83216506 1.625 5.75 C1.74101563 6.81734375 1.85703125 7.8846875 1.9765625 8.984375 C2.00029475 12.03792399 1.61420985 13.46162421 0 16 C-0.33 16 -0.66 16 -1 16 C-0.67 10.72 -0.34 5.44 0 0 Z " fill="#A80E11" transform="translate(1,244)"/>
<path d="M0 0 C0 2.64 0 5.28 0 8 C-2 7 -2 7 -5 5 C-5 4.01 -5 3.02 -5 2 C-1.125 0 -1.125 0 0 0 Z " fill="#AF0D0C" transform="translate(269,300)"/>
<path d="M0 0 C1.98 0.495 1.98 0.495 4 1 C4 1.99 4 2.98 4 4 C3.34 4 2.68 4 2 4 C1.67 4.99 1.34 5.98 1 7 C-1 4 -1 4 -0.625 1.8125 C-0.41875 1.214375 -0.2125 0.61625 0 0 Z " fill="#CB0101" transform="translate(431,292)"/>
<path d="M0 0 C0 0.99 0 1.98 0 3 C0.66 3 1.32 3 2 3 C2 3.66 2 4.32 2 5 C1.01 5 0.02 5 -1 5 C-1 4.34 -1 3.68 -1 3 C-2.65 3 -4.3 3 -6 3 C-6 2.34 -6 1.68 -6 1 C-4 0 -4 0 0 0 Z " fill="#C80202" transform="translate(470,244)"/>
<path d="M0 0 C0.33 0 0.66 0 1 0 C1.66 4.62 2.32 9.24 3 14 C2.34 14 1.68 14 1 14 C0.06380187 10.84493858 -0.1057123 8.03413498 -0.0625 4.75 C-0.05347656 3.85796875 -0.04445313 2.9659375 -0.03515625 2.046875 C-0.02355469 1.37140625 -0.01195312 0.6959375 0 0 Z " fill="#A90F10" transform="translate(285,282)"/>
<path d="M0 0 C1.65 0 3.3 0 5 0 C5 0.66 5 1.32 5 2 C6.65 2.33 8.3 2.66 10 3 C10.33 3.99 10.66 4.98 11 6 C7.2089881 4.55049545 3.6125362 2.84827434 0 1 C0 0.67 0 0.34 0 0 Z " fill="#AB0C0E" transform="translate(464,247)"/>
<path d="M0 0 C1.65 0 3.3 0 5 0 C3.58480285 2.0343459 2.45017877 2.90410393 0.01953125 3.421875 C-1.98176954 3.66273952 -3.9909944 3.83532741 -6 4 C-6 3.34 -6 2.68 -6 2 C-4.02 2 -2.04 2 0 2 C0 1.34 0 0.68 0 0 Z " fill="#A20F0D" transform="translate(50,239)"/>
<path d="M0 0 C0.66 0.33 1.32 0.66 2 1 C1.34 3.31 0.68 5.62 0 8 C-0.99 7.67 -1.98 7.34 -3 7 C-2.67 6.67 -2.34 6.34 -2 6 C-2.66 5.34 -3.32 4.68 -4 4 C-3.01 3.67 -2.02 3.34 -1 3 C-0.67 2.01 -0.34 1.02 0 0 Z " fill="#C80202" transform="translate(428,301)"/>
<path d="M0 0 C0.556875 0.28875 1.11375 0.5775 1.6875 0.875 C4.08494645 2.0413253 6.51596939 3.0339881 9 4 C8.34 5.32 7.68 6.64 7 8 C5.83035398 6.8572081 4.66435444 5.71068285 3.5 4.5625 C2.8503125 3.92441406 2.200625 3.28632813 1.53125 2.62890625 C0 1 0 1 0 0 Z " fill="#A90E0F" transform="translate(478,255)"/>
<path d="M0 0 C0.66 0 1.32 0 2 0 C2 1.98 2 3.96 2 6 C0.68 6 -0.64 6 -2 6 C-1.34 4.02 -0.68 2.04 0 0 Z " fill="#C90202" transform="translate(253,264)"/>
<path d="M0 0 C0.99 0.495 0.99 0.495 2 1 C2 1.66 2 2.32 2 3 C3.32 3 4.64 3 6 3 C6 2.34 6 1.68 6 1 C6.66 1 7.32 1 8 1 C7.67 2.32 7.34 3.64 7 5 C4.03 4.505 4.03 4.505 1 4 C0.67 2.68 0.34 1.36 0 0 Z " fill="#A81213" transform="translate(129,310)"/>
<path d="M0 0 C0.61875 0.474375 1.2375 0.94875 1.875 1.4375 C3.90705546 3.02417441 3.90705546 3.02417441 6 4 C6 5.32 6 6.64 6 8 C5.34 8 4.68 8 4 8 C0 2.58823529 0 2.58823529 0 0 Z " fill="#AB0E11" transform="translate(453,302)"/>
<path d="M0 0 C3.6 5.4 3.6 5.4 5 8 C4.67 8.66 4.34 9.32 4 10 C2 8.375 2 8.375 0 6 C-0.25 2.75 -0.25 2.75 0 0 Z " fill="#AB0E0A" transform="translate(405,293)"/>
<path d="M0 0 C0 3 0 3 -2 5.1875 C-2.66 5.785625 -3.32 6.38375 -4 7 C-4.33 5.35 -4.66 3.7 -5 2 C-3.35 1.34 -1.7 0.68 0 0 Z " fill="#AE0C0D" transform="translate(465,196)"/>
<path d="M0 0 C-0.66 2.31 -1.32 4.62 -2 7 C-3.32 6.34 -4.64 5.68 -6 5 C-5.01 5 -4.02 5 -3 5 C-3 4.34 -3 3.68 -3 3 C-3.66 2.34 -4.32 1.68 -5 1 C-3 0 -3 0 0 0 Z " fill="#B90809" transform="translate(55,193)"/>
<path d="M0 0 C0.66 0.33 1.32 0.66 2 1 C2 2.32 2 3.64 2 5 C0.68 5 -0.64 5 -2 5 C-2 3.68 -2 2.36 -2 1 C-1.34 0.67 -0.68 0.34 0 0 Z " fill="#C90100" transform="translate(91,308)"/>
<path d="M0 0 C-2 2 -2 2 -3.9453125 2.1953125 C-5.96354167 2.13020833 -7.98177083 2.06510417 -10 2 C-3.75 -1.125 -3.75 -1.125 0 0 Z " fill="#AA0B0C" transform="translate(484,304)"/>
<path d="M0 0 C1.33333333 0.66666667 2.66666667 1.33333333 4 2 C3.67 3.65 3.34 5.3 3 7 C1.5 5.75 1.5 5.75 0 4 C0 2.68 0 1.36 0 0 Z " fill="#C70205" transform="translate(9,214)"/>
<path d="M0 0 C0.66 0 1.32 0 2 0 C3.125 2.25 3.125 2.25 4 5 C3.125 7.3125 3.125 7.3125 2 9 C1.67 9 1.34 9 1 9 C0.67 6.03 0.34 3.06 0 0 Z " fill="#A40F0E" transform="translate(152,210)"/>
<path d="M0 0 C0.66 0.99 1.32 1.98 2 3 C0.68 4.65 -0.64 6.3 -2 8 C-2.33 6.35 -2.66 4.7 -3 3 C-2.01 2.67 -1.02 2.34 0 2 C0 1.34 0 0.68 0 0 Z " fill="#B20C0C" transform="translate(22,195)"/>
</svg>
